<svg id="svg" version="1.1" xmlns="http://www.w3.org/2000/svg" xmlns:xlink="http://www.w3.org/1999/xlink" width="400" height="508.5820895522388" viewBox="0, 0, 400,508.5820895522388"><g id="svgg"><path id="path0" d="M215.310 73.228 L 215.321 82.649 219.134 84.815 C 221.232 86.006,223.367 87.326,223.880 87.748 L 224.812 88.516 223.507 89.614 C 219.467 93.012,210.640 98.458,194.590 107.453 C 188.638 110.788,181.561 114.842,178.863 116.460 C 176.165 118.079,173.834 119.403,173.683 119.403 C 172.459 119.403,161.079 112.428,161.415 111.884 C 162.414 110.268,168.507 106.534,197.388 89.840 C 200.569 88.002,204.641 85.637,206.437 84.585 L 209.701 82.672 209.701 73.426 C 209.701 67.341,209.570 64.179,209.318 64.179 C 208.977 64.179,201.129 68.639,186.940 76.896 C 184.375 78.389,179.212 81.386,175.468 83.555 C 155.776 94.965,154.801 96.326,154.789 112.437 C 154.779 125.457,154.635 124.793,158.293 128.603 L 160.502 130.903 159.896 132.074 C 159.189 133.441,158.960 154.234,159.632 155.983 C 161.525 160.911,172.204 167.270,193.470 176.134 C 196.343 177.331,199.352 178.588,200.155 178.925 L 201.617 179.539 199.223 180.878 C 197.906 181.615,196.744 182.327,196.642 182.461 C 196.433 182.734,195.204 183.404,192.164 184.899 C 182.667 189.572,171.709 196.688,167.117 201.163 C 161.551 206.588,161.754 205.920,161.754 218.843 L 161.754 229.664 162.774 231.400 C 163.718 233.005,168.036 237.313,168.701 237.313 C 168.861 237.313,168.748 237.896,168.451 238.607 C 168.022 239.635,167.910 242.097,167.910 250.560 L 167.910 261.219 168.870 263.112 C 170.585 266.496,174.067 269.340,181.305 273.268 C 186.706 276.198,186.224 276.913,186.107 266.143 L 186.007 256.914 181.849 254.669 C 177.462 252.302,174.627 250.463,174.627 249.985 C 174.627 249.615,181.404 244.652,181.908 244.652 C 182.117 244.652,184.915 245.778,188.125 247.156 C 196.282 250.654,225.008 262.345,226.026 262.580 L 226.866 262.774 226.866 253.449 L 226.866 244.125 214.086 239.007 C 207.057 236.192,201.165 233.754,200.992 233.590 C 200.820 233.425,202.835 232.071,205.470 230.581 C 232.522 215.284,243.676 206.138,239.893 202.356 C 239.601 202.063,239.601 201.880,239.893 201.699 C 240.163 201.532,240.296 199.051,240.290 194.288 C 240.277 184.165,239.391 181.206,235.145 177.105 C 233.673 175.683,233.661 175.649,234.180 174.407 C 234.978 172.496,234.880 152.561,234.064 150.830 C 232.197 146.870,220.050 139.792,200.653 131.361 C 192.058 127.625,192.013 127.597,193.481 126.929 C 194.775 126.339,209.081 118.139,213.426 115.496 C 221.960 110.305,228.300 105.107,230.257 101.696 L 231.336 99.813 231.340 88.644 C 231.344 75.725,231.363 75.809,227.648 72.033 C 225.205 69.548,216.748 63.806,215.533 63.806 C 215.404 63.806,215.303 68.046,215.310 73.228 M178.311 140.448 C 180.734 141.557,187.822 144.682,194.063 147.393 C 204.057 151.734,216.540 157.412,218.918 158.698 C 221.518 160.104,226.064 162.825,226.866 163.455 L 227.799 164.188 226.708 165.023 C 223.284 167.644,221.063 168.946,220.516 168.653 C 219.216 167.957,198.366 159.328,197.985 159.328 C 197.758 159.328,196.397 158.761,194.961 158.067 C 193.526 157.373,190.084 155.843,187.313 154.667 C 176.819 150.211,169.828 146.594,167.272 144.296 L 166.447 143.554 167.299 142.885 C 168.452 141.978,173.607 138.433,173.773 138.433 C 173.846 138.433,175.888 139.340,178.311 140.448 M226.204 189.945 C 227.889 190.786,230.093 192.080,231.102 192.821 L 232.938 194.168 231.861 195.044 C 231.268 195.526,229.036 197.116,226.900 198.578 C 224.764 200.041,222.707 201.546,222.329 201.924 C 221.951 202.303,221.450 202.612,221.216 202.612 C 220.981 202.612,219.695 203.303,218.357 204.148 C 217.019 204.993,209.697 209.246,202.085 213.600 C 194.474 217.953,186.746 222.446,184.912 223.584 L 181.578 225.653 177.822 223.769 C 173.279 221.489,169.030 218.986,169.030 218.590 C 169.030 217.460,180.682 209.864,190.390 204.666 C 192.185 203.705,193.750 202.762,193.869 202.570 C 193.988 202.378,195.122 201.749,196.389 201.171 C 197.657 200.594,202.808 197.878,207.836 195.137 C 212.864 192.396,217.973 189.613,219.189 188.954 C 221.691 187.597,221.421 187.559,226.204 189.945 M48.507 366.784 C 48.507 372.276,48.522 372.377,49.347 372.562 C 49.809 372.665,52.329 373.173,54.946 373.691 C 97.568 382.120,153.913 411.456,182.864 440.292 C 190.246 447.643,191.227 449.183,191.537 453.893 C 191.845 458.585,191.172 458.209,199.254 458.209 C 207.334 458.209,206.660 458.576,207.049 453.964 C 207.482 448.830,210.014 445.217,218.724 437.302 C 250.844 408.114,302.566 381.782,343.657 373.699 C 346.427 373.154,348.988 372.625,349.347 372.523 C 349.932 372.357,350.000 371.752,350.000 366.733 L 350.000 361.128 348.414 361.373 C 300.935 368.708,238.324 399.143,202.949 432.085 L 198.996 435.767 196.046 432.776 C 172.688 409.090,120.577 380.224,79.291 368.102 C 69.128 365.118,52.084 361.237,48.974 361.200 C 48.621 361.195,48.507 362.558,48.507 366.784 " stroke="none" fill="#048e4c" fill-rule="evenodd"></path><path id="path1" d="M48.507 328.835 L 48.507 334.617 50.280 334.872 C 67.835 337.395,95.356 346.918,118.340 358.423 C 153.571 376.058,191.393 405.033,191.414 414.404 C 191.416 415.246,191.526 416.967,191.658 418.229 L 191.897 420.522 199.098 420.522 C 203.059 420.522,206.393 420.371,206.507 420.186 C 206.621 420.001,206.858 418.156,207.033 416.086 C 207.448 411.186,208.267 409.910,215.810 402.411 C 244.913 373.481,300.609 344.475,343.750 335.783 L 350.000 334.523 350.000 328.822 L 350.000 323.120 349.160 323.305 C 348.699 323.407,347.229 323.671,345.896 323.892 C 299.330 331.597,235.050 363.279,202.857 394.392 L 199.183 397.942 197.446 396.039 C 192.341 390.447,179.559 380.524,165.299 371.082 C 134.942 350.984,105.606 337.409,73.134 328.433 C 68.178 327.063,58.519 324.895,53.617 324.053 C 51.730 323.729,49.809 323.371,49.347 323.258 L 48.507 323.053 48.507 328.835 " stroke="none" fill="#04acec" fill-rule="evenodd"></path><path id="path2" d="M194.153 14.528 C 189.135 14.782,189.888 13.867,188.434 21.475 L 187.218 27.839 181.948 28.470 C 179.050 28.818,176.632 28.977,176.575 28.823 C 176.518 28.670,175.426 26.026,174.148 22.948 C 171.290 16.063,172.361 16.411,162.220 19.066 L 160.821 19.432 160.819 22.123 C 160.818 23.603,160.711 26.664,160.580 28.927 L 160.343 33.040 155.394 34.738 L 150.444 36.436 147.024 31.091 C 143.049 24.878,143.748 25.133,137.873 27.753 C 132.591 30.109,132.878 29.378,134.308 36.835 C 135.610 43.620,135.613 43.657,134.969 43.657 C 134.706 43.657,132.660 44.756,130.422 46.100 L 126.354 48.544 121.847 44.048 C 119.368 41.575,117.157 39.552,116.934 39.552 C 116.628 39.552,108.675 44.981,107.886 45.728 C 107.811 45.799,108.887 48.709,110.276 52.195 L 112.803 58.532 111.537 59.583 C 110.840 60.161,109.052 61.757,107.564 63.129 L 104.857 65.624 99.910 62.247 C 97.189 60.389,94.739 58.781,94.465 58.674 C 93.954 58.473,90.294 61.861,87.666 64.968 L 86.209 66.690 89.615 72.058 C 91.488 75.010,93.024 77.593,93.028 77.799 C 93.050 79.000,86.829 86.506,86.060 86.205 C 85.620 86.034,83.015 84.944,80.270 83.783 C 74.272 81.247,75.034 81.004,71.735 86.513 C 68.453 91.993,68.209 90.674,73.507 96.082 C 75.970 98.596,77.985 100.760,77.985 100.891 C 77.985 102.029,73.020 110.837,72.468 110.679 C 72.116 110.578,69.562 110.054,66.791 109.515 C 64.021 108.976,61.485 108.458,61.156 108.365 C 60.522 108.183,56.499 117.925,56.840 118.815 C 56.930 119.048,59.287 120.828,62.079 122.772 C 64.870 124.716,67.156 126.532,67.159 126.808 C 67.162 127.084,66.886 128.260,66.546 129.420 C 66.206 130.581,65.659 132.789,65.332 134.328 L 64.737 137.127 58.143 137.229 L 51.548 137.330 51.318 138.380 C 50.886 140.347,49.723 148.320,49.838 148.527 C 49.901 148.640,52.663 149.897,55.975 151.320 L 61.998 153.907 61.781 154.993 C 61.662 155.589,61.455 157.991,61.322 160.329 C 61.188 162.667,60.923 164.676,60.732 164.794 C 60.442 164.973,49.166 167.537,48.669 167.537 C 48.580 167.537,48.507 170.102,48.507 173.236 L 48.507 178.936 54.384 180.165 C 57.617 180.840,60.525 181.468,60.848 181.559 C 61.373 181.707,62.292 187.477,62.465 191.713 C 62.496 192.465,61.805 192.877,56.724 195.141 L 50.947 197.713 51.060 198.950 C 51.122 199.630,51.628 202.118,52.185 204.478 L 53.197 208.769 59.808 208.871 C 63.443 208.927,66.421 209.095,66.424 209.244 C 66.428 209.393,67.156 211.790,68.043 214.570 L 69.655 219.625 64.510 223.152 C 61.217 225.409,59.358 226.918,59.346 227.344 C 59.329 227.983,62.889 236.432,63.440 237.060 C 63.588 237.228,66.576 236.804,70.079 236.117 L 76.449 234.868 76.872 235.798 C 77.106 236.310,78.304 238.478,79.536 240.616 L 81.775 244.504 79.977 246.412 C 78.988 247.462,76.925 249.619,75.392 251.205 L 72.607 254.090 75.576 258.440 C 77.209 260.833,78.645 262.946,78.768 263.136 C 78.891 263.325,81.638 262.378,84.873 261.031 C 88.108 259.684,90.871 258.582,91.014 258.582 C 91.157 258.582,92.803 260.409,94.672 262.642 L 98.071 266.703 94.891 271.877 C 93.141 274.724,91.621 277.277,91.511 277.552 C 91.287 278.115,98.390 285.448,99.159 285.448 C 99.423 285.448,102.003 283.869,104.892 281.940 L 110.146 278.432 114.121 281.601 C 119.006 285.495,118.796 284.418,116.046 291.473 C 114.769 294.750,113.785 297.484,113.859 297.550 C 114.881 298.456,122.445 303.358,122.821 303.358 C 123.102 303.358,125.414 301.272,127.958 298.721 L 132.584 294.084 134.482 295.198 C 135.526 295.810,137.598 296.926,139.086 297.678 C 142.245 299.273,142.116 298.562,140.612 306.097 C 139.615 311.089,139.513 312.061,139.958 312.346 C 140.743 312.849,148.162 315.696,149.247 315.911 C 150.106 316.081,150.491 315.628,153.718 310.660 C 155.661 307.670,157.440 305.224,157.671 305.224 C 157.903 305.224,159.000 305.534,160.109 305.912 C 161.219 306.291,163.344 306.897,164.832 307.259 L 167.537 307.916 167.537 314.567 C 167.537 320.579,167.600 321.237,168.190 321.412 C 169.630 321.838,176.968 323.134,177.911 323.128 C 178.861 323.123,179.056 322.782,181.377 317.065 L 183.836 311.007 185.854 311.087 C 186.965 311.130,189.323 311.270,191.096 311.397 L 194.318 311.627 195.148 315.608 C 195.605 317.798,196.229 320.723,196.537 322.108 L 197.096 324.627 202.623 324.627 L 208.149 324.627 208.711 322.108 C 209.021 320.723,209.645 317.704,210.098 315.399 L 210.923 311.209 212.084 311.048 C 212.723 310.959,215.041 310.653,217.235 310.367 L 221.224 309.848 223.734 315.651 C 225.115 318.843,226.371 321.601,226.526 321.780 C 226.680 321.959,229.134 321.560,232.005 320.889 L 237.204 319.673 237.445 315.189 C 237.578 312.722,237.687 309.661,237.687 308.386 L 237.687 306.068 242.444 304.524 C 245.061 303.675,247.303 302.982,247.428 302.983 C 247.553 302.984,249.214 305.336,251.119 308.209 C 255.172 314.319,254.466 314.093,260.521 311.219 L 265.184 309.005 263.936 302.544 C 263.250 298.990,262.688 295.980,262.687 295.854 C 262.687 295.729,263.736 295.069,265.019 294.388 C 266.301 293.708,268.392 292.516,269.664 291.740 L 271.978 290.329 276.343 294.978 C 281.407 300.371,280.700 300.102,283.877 297.854 C 291.027 292.798,290.612 294.057,287.656 286.393 C 286.408 283.157,285.526 280.387,285.697 280.238 C 285.868 280.089,287.660 278.491,289.679 276.687 L 293.351 273.407 298.747 277.056 L 304.144 280.705 305.463 279.439 C 306.189 278.742,307.961 276.871,309.401 275.280 L 312.018 272.389 308.380 266.767 L 304.742 261.145 305.449 260.240 C 305.838 259.743,307.332 257.781,308.769 255.881 L 311.381 252.425 317.307 254.956 C 320.567 256.348,323.269 257.440,323.312 257.382 C 323.824 256.688,327.004 251.547,327.956 249.874 L 329.196 247.696 327.565 245.966 C 326.667 245.015,325.849 244.142,325.746 244.027 C 325.644 243.912,324.329 242.546,322.825 240.993 L 320.089 238.168 322.558 233.242 C 324.523 229.320,325.157 228.356,325.666 228.511 C 327.737 229.140,337.430 230.629,337.696 230.359 C 338.099 229.951,341.418 221.094,341.418 220.427 C 341.418 220.153,339.054 218.267,336.164 216.237 C 331.808 213.176,330.941 212.414,331.090 211.776 C 331.190 211.353,331.684 209.412,332.190 207.463 C 332.696 205.513,333.219 203.456,333.353 202.892 L 333.596 201.866 340.057 201.866 L 346.518 201.866 347.346 197.295 C 348.685 189.910,349.279 191.005,342.278 187.960 C 336.475 185.436,336.243 185.293,336.412 184.364 C 336.509 183.831,336.724 181.423,336.889 179.011 C 337.249 173.752,336.483 174.519,342.736 173.151 C 345.603 172.523,348.326 171.924,348.787 171.819 C 349.613 171.631,349.627 171.533,349.627 165.939 L 349.627 160.250 343.458 158.964 C 340.064 158.257,337.155 157.587,336.993 157.477 C 336.705 157.281,335.275 146.654,335.514 146.486 C 335.580 146.440,338.237 145.257,341.418 143.859 C 344.599 142.460,347.227 141.297,347.258 141.273 C 347.288 141.250,346.830 138.881,346.238 136.007 C 345.647 133.134,345.160 130.658,345.156 130.504 C 345.152 130.350,343.596 130.206,341.698 130.184 C 339.799 130.163,336.741 130.037,334.901 129.905 L 331.555 129.664 331.201 128.358 C 331.007 127.640,330.288 125.381,329.604 123.338 C 328.921 121.295,328.487 119.512,328.640 119.375 C 328.793 119.238,331.142 117.579,333.859 115.689 C 336.577 113.798,338.866 112.139,338.946 112.002 C 339.126 111.693,335.275 102.663,334.731 102.119 C 334.391 101.780,325.983 103.056,322.420 103.988 C 321.810 104.147,321.404 103.625,320.004 100.877 C 319.078 99.061,317.889 96.871,317.361 96.011 L 316.402 94.448 320.888 89.808 C 326.186 84.327,325.901 85.560,322.899 81.101 C 318.877 75.126,320.031 75.434,312.640 78.365 C 309.526 79.600,306.938 80.565,306.888 80.510 C 305.080 78.503,300.373 72.591,300.373 72.326 C 300.373 72.125,301.800 69.653,303.545 66.833 C 307.418 60.574,307.473 61.453,302.932 57.038 C 298.972 53.187,298.744 53.047,297.791 53.862 C 297.467 54.139,295.157 55.808,292.658 57.572 L 288.115 60.780 283.983 57.386 C 281.710 55.520,279.851 53.852,279.851 53.680 C 279.851 53.509,280.858 50.845,282.090 47.761 C 283.321 44.677,284.328 41.982,284.328 41.772 C 284.328 41.289,276.612 36.242,275.409 35.938 C 274.632 35.741,273.926 36.331,270.151 40.328 L 265.792 44.944 261.161 42.566 C 258.614 41.258,256.467 40.136,256.391 40.073 C 256.261 39.966,258.071 28.886,258.433 27.572 C 258.585 27.020,248.350 22.335,248.009 22.801 C 247.951 22.882,246.338 25.382,244.426 28.358 C 242.514 31.334,240.922 33.804,240.888 33.847 C 240.854 33.890,238.567 33.283,235.805 32.500 L 230.784 31.074 230.681 24.595 C 230.560 16.913,231.150 17.738,225.081 16.762 C 218.895 15.767,219.618 15.279,216.781 22.363 L 214.366 28.395 213.286 28.189 C 212.692 28.075,210.328 27.875,208.033 27.744 L 203.860 27.506 203.011 23.361 C 202.545 21.081,201.910 18.083,201.601 16.698 L 201.038 14.179 199.680 14.248 C 198.932 14.286,196.445 14.412,194.153 14.528 M184.701 36.754 C 184.701 37.472,184.726 38.186,184.756 38.340 C 184.865 38.904,182.133 39.085,181.919 38.527 C 181.478 37.378,181.718 35.875,182.369 35.705 C 184.273 35.207,184.701 35.400,184.701 36.754 M195.366 40.256 C 196.704 41.072,197.593 42.769,197.950 45.189 C 198.246 47.198,197.850 47.388,193.384 47.388 C 191.331 47.388,190.999 47.477,191.191 47.978 C 191.316 48.303,191.418 48.711,191.418 48.884 C 191.418 50.419,194.203 50.847,194.857 49.412 C 195.245 48.560,195.443 48.479,196.621 48.699 C 198.314 49.016,198.294 48.982,197.610 50.306 C 195.444 54.493,189.996 53.772,188.613 49.115 C 186.746 42.830,190.821 37.485,195.366 40.256 M203.616 40.271 C 203.801 40.980,203.820 40.980,204.980 40.272 C 209.309 37.633,210.926 40.622,210.202 49.926 L 209.961 53.023 208.619 52.911 C 207.858 52.847,207.311 52.613,207.357 52.369 C 207.753 50.267,207.472 43.133,206.973 42.634 C 205.339 41.000,203.765 42.870,203.504 46.754 C 203.113 52.583,203.104 52.612,201.624 52.612 L 200.308 52.612 200.538 48.041 C 200.957 39.738,200.996 39.552,202.301 39.552 C 203.100 39.552,203.483 39.761,203.616 40.271 M164.478 40.973 C 165.312 41.513,166.418 43.236,166.418 43.994 C 166.418 44.826,163.909 44.879,163.095 44.065 C 161.797 42.767,159.139 43.354,158.718 45.032 C 158.346 46.512,159.151 47.015,161.895 47.015 C 166.464 47.015,168.274 48.061,169.221 51.250 C 171.102 57.586,162.028 61.535,158.580 55.880 C 157.134 53.508,159.448 52.268,161.420 54.359 C 163.654 56.728,167.668 54.614,166.272 51.804 C 165.879 51.012,165.535 50.916,162.472 50.745 C 157.870 50.487,156.439 49.444,155.803 45.883 C 155.074 41.804,160.777 38.576,164.478 40.973 M185.104 40.392 C 185.120 40.443,185.506 43.367,185.962 46.890 L 186.791 53.295 185.700 53.513 C 185.099 53.633,184.409 53.731,184.165 53.731 C 183.869 53.731,183.505 51.779,183.070 47.854 C 182.711 44.622,182.336 41.695,182.237 41.350 C 182.098 40.869,182.344 40.686,183.285 40.570 C 183.961 40.486,184.641 40.391,184.795 40.358 C 184.949 40.325,185.088 40.340,185.104 40.392 M220.364 41.379 C 221.951 42.100,223.399 44.295,222.989 45.362 C 222.660 46.221,220.149 46.073,220.149 45.195 C 220.149 43.428,217.905 43.199,216.683 44.842 C 215.762 46.080,215.461 49.099,216.131 50.373 C 216.603 51.271,219.012 51.986,219.042 51.236 C 219.101 49.716,222.388 49.438,222.388 50.954 C 222.388 52.313,219.567 54.478,217.795 54.478 C 210.761 54.478,211.415 41.163,218.470 40.712 C 218.675 40.699,219.528 40.999,220.364 41.379 M178.672 42.680 C 180.282 44.136,180.364 44.684,179.073 45.352 C 177.967 45.924,177.873 45.916,177.186 45.179 C 175.942 43.843,173.500 44.753,173.512 46.549 C 173.543 51.082,177.090 54.245,178.221 50.746 C 178.904 48.632,181.211 48.767,181.038 50.911 C 180.596 56.410,174.034 56.687,171.591 51.309 C 168.871 45.322,174.292 38.716,178.672 42.680 M191.626 42.993 C 190.472 44.641,190.828 45.149,193.137 45.149 L 195.230 45.149 194.973 44.125 C 194.447 42.028,192.713 41.441,191.626 42.993 M232.019 44.039 C 233.720 45.077,234.475 47.016,234.174 49.577 C 233.853 52.307,234.005 52.235,230.374 51.401 C 226.919 50.607,226.383 50.752,226.779 52.373 C 227.207 54.128,228.615 54.663,229.853 53.543 C 230.525 52.934,232.836 53.420,232.836 54.170 C 232.836 57.352,226.024 57.539,224.401 54.402 C 221.659 49.099,227.433 41.244,232.019 44.039 M228.423 46.759 C 227.282 47.974,227.406 48.415,229.011 48.861 C 230.840 49.369,231.334 49.354,231.386 48.787 C 231.622 46.224,229.981 45.101,228.423 46.759 M249.557 50.255 C 251.831 51.981,251.825 52.727,249.499 58.104 C 248.770 59.791,248.061 61.764,247.925 62.489 C 247.640 64.009,247.696 63.985,246.231 63.227 C 245.383 62.788,245.167 62.471,245.342 61.921 C 245.610 61.077,245.506 61.047,244.261 61.615 C 241.158 63.029,238.404 59.164,240.300 56.054 C 241.297 54.420,242.564 53.996,245.563 54.296 C 247.622 54.502,248.067 54.445,248.257 53.951 C 248.811 52.507,246.890 51.298,245.462 52.190 C 244.616 52.718,242.809 51.724,242.987 50.829 C 243.373 48.885,247.300 48.541,249.557 50.255 M139.925 52.612 C 141.356 55.570,141.467 55.648,142.046 54.116 C 142.739 52.279,144.832 51.503,146.575 52.437 C 147.857 53.125,152.564 61.028,152.601 62.557 C 152.610 62.927,150.400 63.979,150.169 63.714 C 150.124 63.662,149.293 62.024,148.323 60.075 C 146.285 55.977,145.708 55.224,144.606 55.224 C 142.378 55.224,142.393 57.319,144.655 62.037 C 146.349 65.570,146.380 65.695,145.682 66.223 C 144.218 67.331,143.916 66.953,140.014 59.139 C 135.742 50.582,135.888 51.008,137.034 50.455 C 138.440 49.777,138.618 49.909,139.925 52.612 M256.908 53.802 C 257.656 54.142,257.833 54.436,257.674 55.072 C 257.482 55.835,257.574 55.886,258.864 55.728 C 263.711 55.137,264.141 58.659,260.067 65.582 L 257.814 69.411 256.706 68.838 C 255.277 68.099,255.296 67.948,257.191 64.786 C 259.918 60.238,260.346 58.580,258.980 57.849 C 257.554 57.086,256.503 57.984,254.223 61.917 C 251.964 65.815,251.669 66.049,250.211 65.094 L 249.330 64.516 252.509 58.937 C 254.257 55.869,255.744 53.358,255.812 53.358 C 255.879 53.358,256.373 53.558,256.908 53.802 M243.190 56.746 C 241.539 57.708,242.835 59.941,244.794 59.511 C 246.402 59.158,247.408 57.038,246.147 56.660 C 244.923 56.294,243.916 56.324,243.190 56.746 M135.298 59.184 C 136.792 59.893,136.808 59.957,135.774 61.058 C 135.175 61.695,134.718 61.850,133.912 61.689 C 132.892 61.485,130.962 62.330,130.976 62.975 C 130.999 64.087,131.651 64.251,133.686 63.659 C 137.163 62.649,138.590 62.826,139.805 64.419 C 142.849 68.411,137.766 73.812,133.190 71.446 C 131.329 70.483,132.914 68.198,134.836 69.074 C 136.514 69.839,138.896 68.145,138.056 66.785 C 137.784 66.345,137.375 66.333,135.541 66.712 C 132.086 67.425,131.059 67.311,129.822 66.073 C 126.595 62.846,131.092 57.188,135.298 59.184 M277.249 61.070 C 277.756 61.413,278.236 61.743,278.314 61.804 C 278.445 61.905,274.836 67.026,269.866 73.791 L 267.875 76.501 266.960 75.844 C 266.350 75.406,266.102 74.935,266.217 74.432 C 266.367 73.774,266.203 73.677,264.932 73.677 C 260.466 73.677,260.087 68.692,264.202 64.075 C 267.174 60.740,272.015 60.596,272.015 63.842 C 272.015 65.210,272.709 64.845,274.229 62.679 C 275.972 60.194,275.960 60.200,277.249 61.070 M208.022 61.948 C 249.095 65.755,284.080 93.761,297.740 133.769 C 300.172 140.892,302.985 153.320,302.985 156.940 L 302.985 157.836 268.657 157.836 C 234.577 157.836,234.328 157.841,234.328 158.582 C 234.328 159.323,234.577 159.328,268.806 159.328 L 303.285 159.328 303.561 163.713 C 303.712 166.124,303.700 170.951,303.533 174.440 C 303.366 177.929,303.205 181.455,303.174 182.276 C 303.144 183.097,303.019 184.021,302.897 184.328 C 302.775 184.636,302.405 186.483,302.074 188.433 C 301.743 190.382,300.948 194.117,300.308 196.733 L 299.143 201.488 269.441 201.584 C 249.874 201.647,239.771 201.806,239.832 202.052 C 239.893 202.296,250.093 202.458,269.256 202.521 L 298.587 202.616 298.331 203.640 C 295.976 213.055,286.648 229.924,278.269 239.925 C 232.006 295.141,147.616 288.190,110.041 226.069 C 106.283 219.857,99.627 205.111,99.627 203.000 C 99.627 202.734,110.097 202.612,132.790 202.612 C 161.813 202.612,166.011 202.542,166.418 202.052 C 166.830 201.555,163.085 201.493,133.090 201.493 C 114.446 201.493,99.208 201.348,99.098 201.169 C 98.724 200.564,96.937 193.112,95.999 188.246 C 95.157 183.877,95.046 182.200,94.879 171.362 L 94.693 159.328 128.561 159.328 C 162.405 159.328,162.429 159.328,161.754 158.582 C 161.088 157.847,160.604 157.836,128.079 157.836 L 95.079 157.836 95.324 155.877 C 102.456 98.757,152.764 56.827,208.022 61.948 M266.719 65.394 C 264.971 66.852,263.941 69.317,264.593 70.482 C 265.636 72.348,267.560 71.887,269.415 69.328 C 271.844 65.975,269.727 62.885,266.719 65.394 M126.472 66.781 C 127.266 67.185,128.338 68.057,128.855 68.718 L 129.795 69.919 127.211 71.927 C 124.515 74.021,124.140 74.713,125.349 75.360 C 127.070 76.281,128.974 75.271,128.568 73.652 C 128.338 72.738,130.188 71.345,130.981 71.835 C 131.916 72.413,131.372 75.572,130.131 76.770 C 127.786 79.031,126.045 79.122,123.241 77.130 C 116.555 72.378,119.424 63.185,126.472 66.781 M290.034 72.310 L 294.048 76.336 292.994 77.346 L 291.940 78.355 290.477 76.858 L 289.015 75.360 283.688 80.677 L 278.362 85.994 277.352 84.984 L 276.343 83.975 281.455 78.781 C 287.280 72.862,286.993 73.416,285.191 71.570 L 283.815 70.160 284.696 69.222 C 285.869 67.974,285.497 67.759,290.034 72.310 M122.401 69.378 C 121.184 71.653,122.591 72.881,124.596 71.293 C 126.082 70.116,126.125 70.027,125.519 69.358 C 124.679 68.430,122.903 68.441,122.401 69.378 M117.263 74.557 C 117.989 75.134,119.854 76.957,121.407 78.608 L 124.230 81.609 123.378 82.409 C 122.178 83.536,122.243 83.570,118.419 79.820 C 114.808 76.279,114.013 75.933,113.206 77.553 C 112.533 78.903,112.944 79.679,116.096 83.009 C 119.377 86.475,119.380 86.482,118.048 87.452 L 117.091 88.150 114.860 85.959 C 113.632 84.754,111.639 82.660,110.429 81.305 L 108.230 78.842 109.105 78.020 C 109.913 77.260,110.026 77.244,110.587 77.805 C 111.148 78.365,111.194 78.337,111.194 77.433 C 111.194 73.961,114.526 72.382,117.263 74.557 M293.029 82.597 C 296.010 83.842,296.118 87.798,293.254 90.810 L 291.789 92.351 289.367 89.739 C 287.049 87.238,286.922 87.158,286.383 87.851 C 284.961 89.683,286.050 91.775,288.205 91.352 C 288.575 91.280,289.129 91.710,289.584 92.423 L 290.346 93.615 288.784 94.036 C 285.238 94.991,282.100 91.613,283.181 88.005 C 284.356 84.084,289.641 81.181,293.029 82.597 M111.005 86.171 C 112.720 87.615,114.560 88.995,115.093 89.238 L 116.062 89.680 115.078 90.707 C 114.536 91.272,113.861 91.645,113.577 91.536 C 113.203 91.393,113.060 91.667,113.060 92.526 C 113.060 94.328,111.324 95.896,109.328 95.896 C 105.910 95.896,104.660 92.994,106.406 89.114 C 107.313 87.098,107.128 86.194,105.808 86.194 C 104.708 86.194,103.955 87.359,104.206 88.671 C 104.334 89.342,104.116 89.759,103.351 90.303 L 102.325 91.034 101.927 90.013 C 101.091 87.872,101.244 86.546,102.500 85.054 C 104.886 82.218,106.575 82.440,111.005 86.171 M289.638 85.198 L 288.791 85.669 290.157 87.265 C 291.641 88.999,292.233 88.915,292.726 86.901 C 293.161 85.126,291.459 84.187,289.638 85.198 M108.384 89.951 C 107.557 91.785,107.940 92.724,109.515 92.724 C 111.501 92.724,111.729 90.174,109.854 88.936 C 109.125 88.455,109.029 88.521,108.384 89.951 M100.453 92.959 C 104.560 95.440,106.702 98.529,106.194 101.236 C 105.984 102.358,102.446 108.582,102.019 108.582 C 101.789 108.582,88.032 99.641,87.424 99.096 C 86.985 98.704,89.183 94.782,90.958 92.789 C 92.984 90.513,96.510 90.576,100.453 92.959 M301.536 93.240 C 303.328 95.031,303.575 97.407,302.142 99.073 L 301.299 100.053 300.383 99.078 C 299.607 98.252,299.536 97.992,299.920 97.377 C 300.888 95.828,299.486 94.076,297.648 94.538 C 293.463 95.588,291.275 101.346,295.351 100.581 C 296.567 100.353,298.331 102.167,297.602 102.896 C 296.138 104.359,291.584 102.948,290.673 100.749 C 288.382 95.218,297.330 89.033,301.536 93.240 M92.363 96.142 L 91.035 97.881 95.957 101.160 C 98.664 102.964,101.001 104.364,101.151 104.272 C 103.047 103.100,103.561 99.809,102.103 98.175 C 98.593 94.242,94.471 93.382,92.363 96.142 M311.338 99.054 C 312.141 100.280,312.284 100.084,309.275 101.872 L 306.609 103.455 307.758 103.938 C 310.284 105.000,310.705 107.735,308.640 109.666 C 307.345 110.876,300.432 114.925,299.660 114.925 C 299.322 114.925,298.311 112.747,298.551 112.537 C 298.629 112.467,300.354 111.507,302.384 110.403 C 306.440 108.196,307.392 107.232,306.732 106.000 C 305.824 104.302,304.219 104.594,299.594 107.299 C 298.037 108.210,296.656 108.955,296.525 108.955 C 296.115 108.955,295.034 106.570,295.380 106.428 C 295.561 106.354,298.899 104.472,302.799 102.246 C 310.750 97.706,310.513 97.795,311.338 99.054 M89.440 111.534 C 99.009 115.998,98.168 115.463,97.705 116.791 C 97.383 117.715,97.166 117.869,96.438 117.686 C 95.597 117.475,95.578 117.514,95.991 118.608 C 97.488 122.573,92.750 124.531,87.611 122.071 C 82.925 119.829,81.773 115.690,85.327 113.866 L 86.593 113.217 83.591 111.990 C 81.940 111.315,80.670 110.632,80.768 110.472 C 80.867 110.313,81.117 109.738,81.323 109.196 C 81.819 107.891,81.332 107.751,89.440 111.534 M313.160 112.966 C 313.264 113.326,313.461 113.891,313.598 114.223 C 313.774 114.648,313.593 114.909,312.988 115.102 C 312.177 115.361,312.171 115.388,312.873 115.563 C 314.965 116.083,316.385 118.782,315.484 120.524 C 314.742 121.960,313.943 122.460,309.191 124.462 C 304.575 126.407,304.719 126.387,304.164 125.169 C 303.494 123.697,303.508 123.684,307.401 122.041 C 312.967 119.692,314.031 118.436,311.730 116.928 C 310.804 116.321,310.655 116.351,306.973 117.891 C 301.765 120.068,302.018 120.033,301.316 118.677 L 300.711 117.505 303.434 116.259 C 312.660 112.035,312.872 111.963,313.160 112.966 M86.923 115.315 C 85.256 116.983,86.867 119.225,90.418 120.181 C 92.184 120.657,93.463 120.229,93.842 119.035 C 94.603 116.636,88.750 113.489,86.923 115.315 M87.841 124.987 C 89.408 125.610,91.350 126.119,92.154 126.119 L 93.618 126.119 93.123 127.519 C 92.738 128.609,92.451 128.898,91.825 128.827 C 91.138 128.749,91.077 128.841,91.406 129.455 C 93.392 133.166,88.767 136.504,85.476 133.735 C 84.362 132.798,84.328 132.678,84.328 129.631 C 84.328 126.540,84.314 126.493,83.404 126.493 C 81.940 126.493,81.072 128.075,81.869 129.291 C 82.435 130.155,82.435 130.293,81.869 131.157 C 80.314 133.530,78.230 130.059,79.292 126.863 C 80.510 123.194,82.325 122.796,87.841 124.987 M317.817 126.841 C 322.555 130.273,318.853 136.940,312.210 136.940 C 306.058 136.940,304.531 129.512,310.111 126.731 C 312.953 125.314,315.765 125.355,317.817 126.841 M86.641 129.571 C 86.754 131.526,86.756 131.530,88.017 131.530 C 89.915 131.530,90.307 130.175,88.834 128.702 C 87.115 126.983,86.506 127.225,86.641 129.571 M312.873 128.698 C 310.071 129.392,308.774 131.076,309.736 132.772 C 310.942 134.900,316.037 133.794,316.959 131.204 C 317.590 129.431,315.381 128.076,312.873 128.698 M84.270 136.092 L 89.622 137.115 89.416 138.380 C 89.140 140.084,89.505 140.046,84.193 138.923 C 78.900 137.804,77.979 137.990,78.501 140.070 C 78.855 141.480,80.011 141.906,86.660 143.072 C 87.963 143.300,88.060 143.407,88.060 144.618 C 88.060 146.344,87.661 146.430,83.824 145.535 C 78.347 144.258,76.163 144.632,77.249 146.660 C 77.800 147.691,78.468 147.954,82.958 148.906 L 86.998 149.764 86.749 151.095 C 86.612 151.826,86.461 152.466,86.413 152.516 C 86.240 152.692,74.435 150.259,74.123 149.982 C 73.489 149.421,74.267 147.305,75.033 147.505 C 75.682 147.675,75.694 147.626,75.183 146.896 C 74.005 145.215,75.048 141.791,76.738 141.791 C 77.093 141.791,77.016 141.386,76.455 140.309 C 75.438 138.359,75.758 136.776,77.368 135.795 C 78.805 134.919,77.938 134.882,84.270 136.092 M326.993 138.091 C 327.221 139.051,327.203 139.059,322.100 140.260 C 319.283 140.923,315.343 141.854,313.345 142.329 L 309.712 143.193 309.344 141.860 C 309.141 141.127,309.013 140.490,309.059 140.444 C 309.518 139.985,326.353 136.399,326.535 136.722 C 326.662 136.945,326.868 137.561,326.993 138.091 M321.543 144.672 C 324.410 145.994,325.165 150.298,322.937 152.623 C 320.302 155.373,314.847 155.693,312.394 153.240 C 307.464 148.310,314.712 141.522,321.543 144.672 M316.271 147.139 C 313.166 148.074,312.690 150.943,315.486 151.866 C 317.285 152.460,319.102 152.073,320.458 150.807 C 323.022 148.411,320.214 145.951,316.271 147.139 M85.961 154.864 C 86.770 155.616,85.838 157.818,84.780 157.655 C 77.489 156.525,73.526 157.541,76.109 159.879 C 76.671 160.388,77.841 160.617,81.053 160.848 C 83.368 161.015,85.387 161.161,85.541 161.172 C 85.695 161.184,85.821 161.866,85.821 162.687 C 85.821 163.507,85.695 164.176,85.541 164.173 C 85.387 164.170,83.276 164.003,80.849 163.802 C 75.941 163.395,75.000 163.611,75.000 165.144 C 75.000 166.478,76.594 167.023,81.437 167.344 L 85.448 167.609 85.448 169.066 C 85.448 170.103,85.289 170.522,84.896 170.522 C 83.644 170.522,72.916 169.724,72.541 169.603 C 71.795 169.363,72.391 167.164,73.202 167.164 C 73.916 167.164,73.915 167.141,73.160 166.080 C 72.097 164.587,72.163 162.878,73.329 161.712 L 74.269 160.772 73.515 159.813 C 72.100 158.014,72.685 155.558,74.750 154.633 C 76.027 154.060,85.302 154.252,85.961 154.864 M322.463 157.156 C 325.106 157.948,326.318 161.171,324.792 163.350 C 324.248 164.126,324.260 164.179,324.979 164.179 C 326.443 164.179,326.041 166.656,324.534 166.923 C 321.077 167.537,311.364 167.626,310.010 167.057 C 305.802 165.287,306.426 157.476,310.777 157.464 C 311.489 157.462,311.078 160.457,310.286 161.036 C 308.585 162.279,309.925 164.552,312.360 164.552 L 314.245 164.552 313.279 163.404 C 309.993 159.498,316.196 155.278,322.463 157.156 M196.156 158.619 C 197.609 159.288,198.523 159.332,208.842 159.241 C 219.749 159.144,219.936 159.129,218.575 158.489 C 217.345 157.909,215.915 157.839,205.889 157.867 L 194.590 157.899 196.156 158.619 M316.791 159.960 C 315.964 160.256,315.299 161.228,315.299 162.140 C 315.299 165.049,322.084 164.987,322.929 162.071 C 323.426 160.354,319.484 158.998,316.791 159.960 M113.804 161.521 C 108.342 163.310,105.868 168.976,105.882 179.664 C 105.900 194.105,111.545 200.749,120.988 197.447 C 130.111 194.256,130.765 166.837,121.828 162.215 C 120.205 161.376,115.492 160.968,113.804 161.521 M286.766 162.940 C 286.269 165.589,283.308 167.530,279.757 167.535 L 278.358 167.537 278.358 170.149 L 278.358 172.761 282.090 172.761 L 285.821 172.761 285.856 177.892 C 285.875 180.714,285.861 186.255,285.825 190.205 L 285.758 197.388 289.148 197.388 L 292.537 197.388 292.537 179.478 L 292.537 161.567 289.780 161.567 L 287.023 161.567 286.766 162.940 M119.107 168.214 C 121.670 170.748,121.594 188.501,119.009 191.254 C 114.965 195.558,111.753 186.749,113.012 174.813 C 113.727 168.046,116.213 165.353,119.107 168.214 M310.217 170.088 C 309.676 172.797,311.218 172.908,319.515 170.758 L 325.784 169.134 325.672 170.667 L 325.560 172.199 321.362 173.091 C 316.230 174.182,316.232 174.160,321.175 175.782 L 325.187 177.098 325.300 178.642 L 325.414 180.186 317.848 177.572 C 307.870 174.125,307.463 173.863,307.463 170.890 C 307.463 169.394,307.465 169.392,309.972 169.086 C 310.281 169.048,310.360 169.373,310.217 170.088 M85.453 172.481 C 85.456 172.738,85.555 173.309,85.674 173.751 C 85.834 174.350,85.688 174.619,85.099 174.806 C 84.313 175.055,84.314 175.062,85.252 176.176 C 86.826 178.048,86.415 180.451,84.336 181.526 C 81.547 182.968,79.290 181.788,78.034 178.232 C 77.139 175.694,76.624 175.295,75.586 176.333 C 74.762 177.157,74.855 177.874,75.922 178.941 C 76.841 179.860,76.934 182.090,76.054 182.090 C 73.001 182.090,71.141 176.563,73.425 174.279 C 74.369 173.335,74.793 173.218,78.182 172.968 C 80.229 172.818,82.575 172.561,83.396 172.398 C 84.216 172.234,85.014 172.081,85.168 172.058 C 85.322 172.034,85.450 172.225,85.453 172.481 M79.861 176.902 C 80.356 178.628,80.948 179.157,82.244 179.030 C 84.763 178.784,83.554 175.746,80.938 175.746 C 79.541 175.746,79.532 175.755,79.861 176.902 M86.408 184.905 C 86.718 186.557,87.152 186.330,81.939 187.239 C 77.142 188.076,76.254 188.549,76.635 190.070 C 77.042 191.691,77.865 191.841,82.646 191.161 C 87.370 190.489,87.668 190.564,87.681 192.437 C 87.688 193.430,88.255 193.280,78.186 194.948 C 69.820 196.334,69.793 196.332,69.782 194.350 C 69.775 193.253,70.053 193.134,73.626 192.705 L 75.797 192.445 74.886 191.465 C 73.239 189.695,73.339 187.184,75.103 186.028 C 75.790 185.578,83.251 183.891,85.711 183.630 C 85.958 183.604,86.272 184.178,86.408 184.905 M323.228 188.859 C 329.333 190.078,329.433 190.133,328.762 191.896 L 328.420 192.796 323.072 191.750 C 315.144 190.199,313.740 190.401,313.206 193.166 C 312.788 195.329,313.947 195.992,320.163 197.148 C 323.131 197.700,326.015 198.243,326.571 198.356 C 327.479 198.539,327.560 198.682,327.361 199.747 C 327.020 201.577,327.032 201.576,320.239 200.205 C 310.859 198.311,309.695 197.443,310.184 192.703 C 310.718 187.526,313.073 186.832,323.228 188.859 M87.369 197.230 C 89.840 198.508,90.692 202.111,89.086 204.494 C 86.814 207.865,80.029 208.695,77.698 205.887 C 73.584 200.931,81.253 194.067,87.369 197.230 M82.090 199.654 C 79.866 200.586,78.690 202.986,79.946 204.029 C 81.976 205.714,87.313 204.005,87.313 201.670 C 87.313 199.986,84.181 198.777,82.090 199.654 M314.963 202.635 C 318.226 203.674,320.896 204.671,320.896 204.850 C 320.896 205.998,320.138 207.017,319.423 206.830 C 318.690 206.638,318.681 206.677,319.214 207.699 C 320.086 209.371,319.900 210.398,318.467 211.832 C 316.903 213.395,316.607 213.375,310.139 211.270 L 305.913 209.894 306.132 208.799 C 306.446 207.229,306.324 207.237,310.793 208.524 C 315.718 209.943,316.705 209.998,317.121 208.876 C 317.850 206.904,316.789 206.071,311.546 204.501 C 308.030 203.448,308.024 203.443,308.341 201.857 C 308.616 200.482,307.957 200.405,314.963 202.635 M194.568 202.040 C 193.926 202.525,195.431 202.590,207.671 202.600 C 219.265 202.610,221.616 202.523,222.223 202.064 C 222.865 201.579,221.360 201.515,209.120 201.504 C 197.526 201.494,195.175 201.581,194.568 202.040 M91.899 209.137 C 91.975 210.151,91.804 210.255,86.472 212.429 C 83.444 213.663,81.030 214.736,81.107 214.813 C 81.184 214.891,83.970 214.487,87.297 213.915 C 93.255 212.891,93.353 212.886,93.874 213.599 C 94.918 215.026,94.500 215.502,89.086 219.051 C 86.161 220.969,83.601 222.684,83.396 222.863 C 83.007 223.201,83.824 222.895,91.164 219.953 C 95.690 218.139,96.044 218.127,96.440 219.776 C 96.658 220.683,96.435 220.800,88.397 223.989 C 83.850 225.793,80.081 227.220,80.021 227.160 C 79.962 227.101,79.566 226.170,79.141 225.092 L 78.368 223.131 83.216 219.901 C 85.883 218.125,88.013 216.620,87.951 216.558 C 87.888 216.495,85.274 216.875,82.141 217.403 C 79.009 217.930,76.387 218.302,76.314 218.229 C 76.241 218.156,75.840 217.230,75.422 216.170 L 74.663 214.243 82.947 210.906 C 91.531 207.448,91.769 207.400,91.899 209.137 M310.642 214.694 C 317.212 217.272,317.017 217.137,316.268 218.587 L 315.681 219.722 310.172 217.482 C 307.143 216.250,304.473 215.160,304.240 215.060 C 303.930 214.927,303.922 214.530,304.212 213.586 C 304.430 212.876,304.709 212.341,304.831 212.397 C 304.953 212.454,307.569 213.487,310.642 214.694 M319.975 218.451 C 321.383 219.039,321.479 219.280,320.852 220.654 C 320.471 221.492,318.691 221.328,317.629 220.357 C 317.487 220.228,318.330 217.910,318.519 217.910 C 318.608 217.910,319.263 218.154,319.975 218.451 M314.854 221.830 C 315.383 222.308,313.733 224.626,312.981 224.463 C 310.409 223.905,305.492 223.115,305.367 223.240 C 305.287 223.319,306.644 224.679,308.381 226.260 L 311.540 229.136 310.925 230.426 C 310.115 232.124,310.536 232.376,305.089 226.917 L 300.301 222.118 300.870 221.017 L 301.440 219.916 308.089 220.821 C 311.746 221.319,314.791 221.773,314.854 221.830 M302.476 229.449 C 310.600 233.138,308.332 242.722,300.139 239.327 C 297.622 238.284,297.621 238.276,299.650 235.038 L 301.504 232.079 300.551 231.644 C 298.528 230.723,296.391 232.864,297.727 234.474 C 298.018 234.825,297.833 235.224,297.017 236.005 L 295.914 237.062 295.167 235.416 C 293.066 230.785,297.481 227.180,302.476 229.449 M101.732 229.766 C 105.162 232.532,103.917 237.043,99.050 239.480 C 92.129 242.946,87.492 235.852,93.726 231.336 C 95.704 229.903,95.466 229.799,97.369 232.929 C 98.273 234.417,99.044 235.680,99.080 235.736 C 99.464 236.324,101.119 234.279,101.119 233.218 C 101.119 232.571,99.931 231.716,99.031 231.716 C 98.186 231.716,97.388 230.618,97.388 229.453 C 97.388 228.827,100.879 229.078,101.732 229.766 M302.088 234.925 C 300.905 236.797,301.097 237.296,303.004 237.308 C 304.824 237.319,305.569 235.094,304.168 233.826 C 303.259 233.004,303.324 232.970,302.088 234.925 M94.331 234.235 C 92.897 235.904,93.497 237.693,95.487 237.681 C 97.327 237.670,97.476 237.225,96.276 235.333 C 95.007 233.331,95.074 233.370,94.331 234.235 M297.350 240.736 L 302.571 244.532 301.799 245.616 C 301.248 246.390,300.913 246.584,300.626 246.297 C 299.944 245.616,299.789 245.841,299.928 247.308 C 300.133 249.449,298.609 250.210,297.239 248.650 C 296.311 247.594,296.307 247.565,297.027 247.063 C 298.535 246.011,297.565 244.633,292.806 241.062 C 290.131 239.055,290.109 239.018,290.932 237.888 C 291.844 236.634,291.497 236.481,297.350 240.736 M107.724 239.164 C 111.332 241.364,110.767 245.792,106.505 248.728 C 99.991 253.214,94.460 247.546,99.619 241.671 C 101.252 239.811,101.557 239.901,103.810 242.910 C 106.069 245.930,106.146 245.961,106.988 244.196 C 107.760 242.577,107.339 241.660,105.746 241.488 C 104.572 241.362,103.731 240.535,103.731 239.508 C 103.731 238.329,106.030 238.131,107.724 239.164 M100.609 244.794 C 99.415 246.814,101.578 248.707,103.466 247.295 C 104.034 246.870,103.982 246.688,102.884 245.256 C 101.434 243.365,101.451 243.368,100.609 244.794 M119.765 245.502 C 120.575 247.015,118.692 248.629,117.202 247.698 C 116.417 247.208,116.026 247.488,108.673 253.806 L 105.329 256.680 104.350 255.659 L 103.372 254.638 109.012 249.800 C 116.482 243.393,118.257 242.683,119.765 245.502 M290.581 244.561 C 291.158 245.138,289.591 246.830,288.366 246.951 C 286.831 247.103,285.821 247.970,285.821 249.137 C 285.821 250.530,286.652 250.518,289.253 249.088 C 294.324 246.300,298.423 249.905,295.212 254.328 C 293.566 256.596,289.552 257.675,289.552 255.850 C 289.552 254.990,290.711 253.731,291.503 253.731 C 293.161 253.731,294.440 251.396,293.070 250.871 C 292.747 250.747,292.034 250.977,291.484 251.382 C 287.052 254.646,283.209 253.643,283.209 249.223 C 283.209 245.817,288.494 242.474,290.581 244.561 M118.191 252.181 C 118.135 252.508,118.527 252.848,119.163 253.022 C 122.518 253.944,123.134 257.434,120.331 259.639 C 118.939 260.734,117.661 260.657,115.172 259.328 C 112.707 258.013,112.461 257.982,111.962 258.915 C 111.402 259.960,112.838 261.704,114.014 261.408 C 115.289 261.088,116.781 262.991,115.811 263.700 C 113.900 265.098,110.277 263.410,109.090 260.568 C 108.399 258.914,108.695 258.360,112.237 254.675 C 113.939 252.904,115.521 251.040,115.752 250.532 L 116.172 249.610 117.228 250.621 C 117.809 251.177,118.242 251.879,118.191 252.181 M284.596 256.051 L 289.165 260.609 288.160 261.657 L 287.156 262.705 282.595 258.155 L 278.034 253.604 278.849 252.569 C 279.927 251.200,279.435 250.902,284.596 256.051 M115.413 255.411 C 114.380 256.333,114.376 256.353,115.112 256.920 C 116.870 258.275,118.727 257.989,118.972 256.326 C 119.242 254.492,117.070 253.933,115.413 255.411 M269.403 256.716 C 269.997 257.550,270.066 257.836,269.675 257.836 C 268.876 257.836,268.239 259.535,268.641 260.593 C 268.840 261.117,270.731 262.695,273.203 264.402 C 275.525 266.006,278.047 267.763,278.807 268.307 L 280.189 269.297 279.140 270.302 L 278.090 271.307 274.274 268.467 C 270.000 265.287,270.068 265.204,272.456 270.709 L 273.912 274.067 272.943 274.907 C 271.554 276.109,271.647 276.223,269.420 270.613 C 264.823 259.033,264.743 258.635,266.631 256.854 C 268.258 255.319,268.403 255.312,269.403 256.716 M102.985 256.903 L 103.861 257.836 102.985 258.769 C 101.877 259.949,101.296 259.945,100.516 258.755 C 99.341 256.962,101.511 255.334,102.985 256.903 M277.888 257.743 C 278.673 258.512,280.109 260.043,281.078 261.144 C 282.447 262.699,282.952 263.054,283.338 262.735 C 284.064 262.132,285.741 263.936,285.134 264.667 C 284.806 265.063,284.919 265.373,285.643 266.053 C 286.421 266.784,286.536 267.149,286.339 268.259 C 285.988 270.242,285.735 270.289,284.147 268.662 C 282.773 267.255,282.659 267.209,282.005 267.800 C 280.882 268.817,278.999 266.819,280.018 265.693 C 280.687 264.954,280.657 264.890,278.533 262.471 C 276.100 259.699,275.463 259.309,274.817 260.193 C 274.410 260.750,274.296 260.727,273.565 259.950 C 272.591 258.912,272.545 258.140,273.414 257.383 C 275.032 255.973,276.177 256.065,277.888 257.743 M124.647 262.937 L 122.314 265.858 124.310 267.626 C 126.783 269.817,126.334 269.913,129.104 266.604 C 131.763 263.430,131.564 263.532,132.926 264.647 L 133.949 265.485 128.697 272.015 C 122.048 280.282,122.796 279.605,121.483 278.546 L 120.390 277.665 122.042 275.563 C 124.984 271.820,124.935 272.307,122.561 270.373 C 119.947 268.243,120.326 268.170,117.910 271.269 C 115.592 274.243,115.711 274.182,114.578 272.975 C 113.545 271.875,113.138 272.575,119.543 264.446 L 124.772 257.809 125.876 258.913 L 126.979 260.016 124.647 262.937 M291.612 263.067 L 292.692 264.194 291.759 265.127 L 290.826 266.060 289.775 264.964 C 288.732 263.874,288.730 263.861,289.418 262.915 C 290.295 261.713,290.316 261.714,291.612 263.067 M148.792 277.111 C 155.452 282.044,149.825 292.296,142.351 288.847 C 137.084 286.416,137.084 279.075,142.351 276.628 C 143.945 275.887,147.500 276.153,148.792 277.111 M258.739 277.260 C 263.870 280.734,261.654 288.957,255.449 289.471 C 249.219 289.988,245.816 282.699,250.111 278.036 C 252.084 275.894,256.178 275.526,258.739 277.260 M167.257 280.060 C 168.473 280.350,168.475 280.371,167.545 283.951 C 167.146 285.488,166.939 286.856,167.085 286.991 C 167.302 287.193,172.810 288.806,173.281 288.806 C 173.357 288.806,173.616 288.008,173.856 287.034 C 175.101 281.986,174.883 282.349,176.550 282.572 C 177.373 282.683,178.137 282.864,178.248 282.975 C 178.420 283.147,174.716 299.600,174.431 299.931 C 174.281 300.105,171.847 299.611,171.356 299.308 C 171.050 299.119,171.183 298.059,171.830 295.514 C 172.861 291.463,172.975 291.710,169.699 290.910 C 165.730 289.940,165.936 289.812,164.962 293.853 L 164.105 297.408 162.743 297.166 C 160.605 296.787,160.604 296.765,162.466 289.295 C 165.087 278.776,164.880 279.415,165.598 279.628 C 165.946 279.731,166.693 279.925,167.257 280.060 M233.298 282.467 C 233.660 283.799,234.392 286.842,234.925 289.230 L 235.894 293.571 235.153 295.246 C 233.174 299.720,224.723 300.423,222.587 296.292 C 221.801 294.772,219.019 283.444,219.350 283.113 C 219.505 282.957,220.276 282.789,221.062 282.740 L 222.491 282.649 223.931 288.246 C 224.724 291.325,225.683 294.263,226.063 294.776 C 227.412 296.599,231.416 295.918,231.954 293.774 C 232.162 292.945,230.126 283.468,229.250 281.185 C 229.103 280.802,229.417 280.525,230.285 280.273 C 232.332 279.676,232.591 279.864,233.298 282.467 M193.963 285.041 C 195.450 285.799,196.642 287.624,196.642 289.142 C 196.642 290.541,193.366 290.273,192.864 288.833 C 192.238 287.039,189.249 286.346,187.666 287.628 C 186.096 288.900,186.974 289.652,192.308 291.599 C 198.876 293.997,197.835 301.571,190.855 302.159 C 186.384 302.535,182.463 299.779,182.463 296.260 C 182.463 295.081,185.951 295.312,186.121 296.502 C 186.573 299.672,192.910 300.116,192.910 296.978 C 192.910 295.806,191.982 295.005,190.112 294.561 C 185.027 293.355,182.441 289.856,184.167 286.519 C 185.465 284.008,190.462 283.254,193.963 285.041 M215.299 285.215 C 215.299 286.604,214.562 286.940,211.521 286.940 C 210.389 286.940,210.076 287.082,210.082 287.593 C 210.087 287.952,210.335 291.185,210.634 294.776 C 210.934 298.368,211.182 301.432,211.186 301.586 C 211.191 301.740,210.450 301.866,209.540 301.866 C 207.507 301.866,207.640 302.283,207.064 294.123 L 206.610 287.687 203.865 287.687 L 201.119 287.687 201.119 286.228 L 201.119 284.768 204.198 284.544 C 205.891 284.421,207.948 284.266,208.769 284.200 C 209.590 284.135,211.395 284.052,212.780 284.018 L 215.299 283.955 215.299 285.215 M48.507 291.018 L 48.507 296.589 50.653 297.002 C 96.852 305.904,153.329 334.867,183.405 365.080 C 190.792 372.500,191.599 374.080,191.768 381.437 L 191.791 382.463 199.045 382.463 C 207.367 382.463,206.659 382.843,207.054 378.161 C 208.430 361.844,266.309 322.949,314.391 306.029 C 325.031 302.284,346.209 296.688,349.907 296.643 C 349.958 296.642,350.000 294.123,350.000 291.045 C 350.000 284.406,351.018 284.941,341.876 286.775 C 293.530 296.476,234.585 325.994,202.858 356.391 L 199.208 359.888 196.334 357.090 C 165.366 326.936,105.203 296.510,57.649 286.952 C 47.358 284.884,48.507 284.373,48.507 291.018 " stroke="none" fill="#656565" fill-rule="evenodd"></path><path id="path3" d="M182.369 35.705 C 181.718 35.875,181.478 37.378,181.919 38.527 C 182.133 39.085,184.865 38.904,184.756 38.340 C 184.726 38.186,184.701 37.472,184.701 36.754 C 184.701 35.400,184.273 35.207,182.369 35.705 M190.489 40.362 C 186.129 43.791,187.870 52.477,193.001 52.898 C 195.328 53.088,199.191 50.168,198.069 49.066 C 197.311 48.322,195.252 48.544,194.857 49.412 C 194.203 50.847,191.418 50.419,191.418 48.884 C 191.418 48.711,191.316 48.303,191.191 47.978 C 190.999 47.477,191.331 47.388,193.384 47.388 C 197.850 47.388,198.246 47.198,197.950 45.189 C 197.249 40.432,193.491 38.001,190.489 40.362 M200.971 41.511 C 200.860 42.589,200.665 45.527,200.538 48.041 L 200.308 52.612 201.624 52.612 C 203.104 52.612,203.113 52.583,203.504 46.754 C 203.765 42.870,205.339 41.000,206.973 42.634 C 207.472 43.133,207.753 50.267,207.357 52.369 C 207.311 52.613,207.858 52.847,208.619 52.911 L 209.961 53.023 210.202 49.926 C 210.926 40.622,209.309 37.633,204.980 40.272 C 203.820 40.980,203.801 40.980,203.616 40.271 C 203.142 38.457,201.192 39.372,200.971 41.511 M160.330 40.296 C 157.464 40.832,155.364 43.424,155.803 45.883 C 156.439 49.444,157.870 50.487,162.472 50.745 C 165.535 50.916,165.879 51.012,166.272 51.804 C 167.668 54.614,163.654 56.728,161.420 54.359 C 159.448 52.268,157.134 53.508,158.580 55.880 C 162.028 61.535,171.102 57.586,169.221 51.250 C 168.274 48.061,166.464 47.015,161.895 47.015 C 159.151 47.015,158.346 46.512,158.718 45.032 C 159.139 43.354,161.797 42.767,163.095 44.065 C 163.909 44.879,166.418 44.826,166.418 43.994 C 166.418 41.624,163.313 39.738,160.330 40.296 M183.285 40.570 C 182.344 40.686,182.098 40.869,182.237 41.350 C 182.336 41.695,182.711 44.622,183.070 47.854 C 183.505 51.779,183.869 53.731,184.165 53.731 C 184.409 53.731,185.099 53.633,185.700 53.513 L 186.791 53.295 185.962 46.890 C 185.003 39.483,185.146 40.283,184.795 40.358 C 184.641 40.391,183.961 40.486,183.285 40.570 M217.031 41.055 C 210.992 42.865,211.653 54.478,217.795 54.478 C 219.567 54.478,222.388 52.313,222.388 50.954 C 222.388 49.438,219.101 49.716,219.042 51.236 C 219.012 51.986,216.603 51.271,216.131 50.373 C 215.461 49.099,215.762 46.080,216.683 44.842 C 217.905 43.199,220.149 43.428,220.149 45.195 C 220.149 46.073,222.660 46.221,222.989 45.362 C 223.399 44.295,221.951 42.100,220.364 41.379 C 218.677 40.612,218.550 40.600,217.031 41.055 M174.627 41.866 C 170.023 43.142,169.445 50.323,173.648 54.014 C 176.610 56.615,180.718 54.890,181.038 50.911 C 181.211 48.767,178.904 48.632,178.221 50.746 C 177.090 54.245,173.543 51.082,173.512 46.549 C 173.500 44.753,175.942 43.843,177.186 45.179 C 178.133 46.195,180.509 45.257,179.891 44.110 C 178.828 42.138,176.785 41.267,174.627 41.866 M194.327 42.633 C 194.541 42.890,194.832 43.562,194.973 44.125 L 195.230 45.149 193.137 45.149 C 191.381 45.149,191.045 45.043,191.045 44.486 C 191.045 42.728,193.334 41.436,194.327 42.633 M227.201 44.124 C 224.606 45.843,223.008 51.708,224.401 54.402 C 225.735 56.982,229.724 57.647,231.745 55.626 C 233.128 54.243,233.115 53.902,231.655 53.393 C 230.704 53.061,230.353 53.090,229.853 53.543 C 228.615 54.663,227.207 54.128,226.779 52.373 C 226.383 50.752,226.919 50.607,230.374 51.401 C 234.005 52.235,233.853 52.307,234.174 49.577 C 234.737 44.787,230.822 41.724,227.201 44.124 M230.685 46.362 C 231.571 47.046,231.718 49.255,230.877 49.252 C 229.800 49.247,227.612 48.440,227.612 48.048 C 227.612 46.695,229.661 45.571,230.685 46.362 M244.403 49.562 C 242.778 50.447,242.599 51.202,243.822 52.004 C 244.572 52.495,244.912 52.534,245.462 52.190 C 246.890 51.298,248.811 52.507,248.257 53.951 C 248.067 54.445,247.622 54.502,245.563 54.296 C 242.564 53.996,241.297 54.420,240.300 56.054 C 238.404 59.164,241.158 63.029,244.261 61.615 C 245.506 61.047,245.610 61.077,245.342 61.921 C 245.167 62.471,245.383 62.788,246.231 63.227 C 247.696 63.985,247.640 64.009,247.925 62.489 C 248.061 61.764,248.770 59.791,249.499 58.104 C 251.825 52.727,251.831 51.981,249.557 50.255 C 247.802 48.923,246.018 48.683,244.403 49.562 M137.034 50.455 C 135.888 51.008,135.742 50.582,140.014 59.139 C 143.916 66.953,144.218 67.331,145.682 66.223 C 146.380 65.695,146.349 65.570,144.655 62.037 C 142.393 57.319,142.378 55.224,144.606 55.224 C 145.708 55.224,146.285 55.977,148.323 60.075 C 149.293 62.024,150.124 63.662,150.169 63.714 C 150.400 63.979,152.610 62.927,152.601 62.557 C 152.564 61.028,147.857 53.125,146.575 52.437 C 144.832 51.503,142.739 52.279,142.046 54.116 C 141.467 55.648,141.356 55.570,139.925 52.612 C 138.618 49.909,138.440 49.777,137.034 50.455 M252.509 58.937 L 249.330 64.516 250.211 65.094 C 251.669 66.049,251.964 65.815,254.223 61.917 C 256.503 57.984,257.554 57.086,258.980 57.849 C 260.346 58.580,259.918 60.238,257.191 64.786 C 255.296 67.948,255.277 68.099,256.706 68.838 L 257.814 69.411 260.067 65.582 C 264.141 58.659,263.711 55.137,258.864 55.728 C 257.574 55.886,257.482 55.835,257.674 55.072 C 257.852 54.361,256.763 53.358,255.812 53.358 C 255.744 53.358,254.257 55.869,252.509 58.937 M246.147 56.660 C 246.903 56.887,246.924 56.983,246.460 58.079 C 245.564 60.195,242.537 60.131,242.537 57.995 C 242.537 56.607,244.072 56.039,246.147 56.660 M131.903 59.201 C 128.517 60.983,127.637 63.889,129.822 66.073 C 131.059 67.311,132.086 67.425,135.541 66.712 C 137.375 66.333,137.784 66.345,138.056 66.785 C 138.896 68.145,136.514 69.839,134.836 69.074 C 132.914 68.198,131.329 70.483,133.190 71.446 C 137.766 73.812,142.849 68.411,139.805 64.419 C 138.590 62.826,137.163 62.649,133.686 63.659 C 131.651 64.251,130.999 64.087,130.976 62.975 C 130.962 62.330,132.892 61.485,133.912 61.689 C 134.884 61.883,136.567 60.812,136.567 60.000 C 136.567 58.969,133.380 58.424,131.903 59.201 M274.229 62.679 C 272.709 64.845,272.015 65.210,272.015 63.842 C 272.015 60.596,267.174 60.740,264.202 64.075 C 260.087 68.692,260.466 73.677,264.932 73.677 C 266.203 73.677,266.367 73.774,266.217 74.432 C 266.102 74.935,266.350 75.406,266.960 75.844 L 267.875 76.501 269.866 73.791 C 274.836 67.026,278.445 61.905,278.314 61.804 C 276.080 60.067,276.058 60.071,274.229 62.679 M270.075 65.000 C 270.872 65.798,270.579 67.720,269.415 69.328 C 267.560 71.887,265.636 72.348,264.593 70.482 C 263.192 67.979,268.122 63.048,270.075 65.000 M120.627 67.358 C 116.913 71.072,122.930 80.197,127.866 78.336 C 130.559 77.321,132.684 72.887,130.981 71.835 C 130.188 71.345,128.338 72.738,128.568 73.652 C 128.974 75.271,127.070 76.281,125.349 75.360 C 124.140 74.713,124.515 74.021,127.211 71.927 L 129.795 69.919 128.855 68.718 C 126.587 65.820,122.792 65.193,120.627 67.358 M284.696 69.222 L 283.815 70.160 285.191 71.570 C 286.993 73.416,287.280 72.862,281.455 78.781 L 276.343 83.975 277.352 84.984 L 278.362 85.994 283.688 80.677 L 289.015 75.360 290.477 76.858 L 291.940 78.355 292.994 77.346 L 294.048 76.336 290.034 72.310 C 285.497 67.759,285.869 67.974,284.696 69.222 M125.519 69.358 C 126.125 70.027,126.082 70.116,124.596 71.293 C 123.105 72.474,123.017 72.496,122.527 71.826 C 120.960 69.683,123.739 67.391,125.519 69.358 M112.966 73.910 C 112.100 74.415,111.194 76.216,111.194 77.433 C 111.194 78.337,111.148 78.365,110.587 77.805 C 110.026 77.244,109.913 77.260,109.105 78.020 L 108.230 78.842 110.429 81.305 C 111.639 82.660,113.632 84.754,114.860 85.959 L 117.091 88.150 118.048 87.452 C 119.380 86.482,119.377 86.475,116.096 83.009 C 112.944 79.679,112.533 78.903,113.206 77.553 C 114.013 75.933,114.808 76.279,118.419 79.820 C 122.243 83.570,122.178 83.536,123.378 82.409 L 124.230 81.609 121.407 78.608 C 116.735 73.641,115.044 72.700,112.966 73.910 M288.042 82.822 C 285.967 83.919,283.672 86.367,283.181 88.005 C 282.100 91.613,285.238 94.991,288.784 94.036 L 290.346 93.615 289.584 92.423 C 289.129 91.710,288.575 91.280,288.205 91.352 C 286.050 91.775,284.961 89.683,286.383 87.851 C 286.922 87.158,287.049 87.238,289.367 89.739 L 291.789 92.351 293.254 90.810 C 297.850 85.977,293.804 79.776,288.042 82.822 M104.616 83.390 C 101.883 84.539,100.816 87.168,101.927 90.013 L 102.325 91.034 103.351 90.303 C 104.116 89.759,104.334 89.342,104.206 88.671 C 103.955 87.359,104.708 86.194,105.808 86.194 C 107.128 86.194,107.313 87.098,106.406 89.114 C 105.130 91.951,105.197 93.314,106.688 94.805 C 108.931 97.048,113.060 95.572,113.060 92.526 C 113.060 91.667,113.203 91.393,113.577 91.536 C 113.861 91.645,114.536 91.272,115.078 90.707 L 116.062 89.680 115.093 89.238 C 114.560 88.995,112.720 87.615,111.005 86.171 C 107.513 83.230,106.277 82.692,104.616 83.390 M292.351 85.315 C 293.023 85.987,292.851 87.501,292.006 88.367 C 291.607 88.775,291.284 88.582,290.157 87.265 L 288.791 85.669 289.638 85.198 C 290.799 84.554,291.625 84.589,292.351 85.315 M110.993 90.454 C 111.469 91.785,110.857 92.724,109.515 92.724 C 107.940 92.724,107.557 91.785,108.384 89.951 C 109.168 88.213,110.267 88.425,110.993 90.454 M92.724 91.545 C 90.732 92.465,86.597 98.357,87.424 99.096 C 88.032 99.641,101.789 108.582,102.019 108.582 C 102.446 108.582,105.984 102.358,106.194 101.236 C 107.139 96.203,97.560 89.312,92.724 91.545 M294.620 92.826 C 288.511 96.213,289.050 103.802,295.362 103.278 C 297.857 103.071,297.965 102.968,297.212 101.513 C 296.668 100.460,296.485 100.369,295.351 100.581 C 291.275 101.346,293.463 95.588,297.648 94.538 C 299.486 94.076,300.888 95.828,299.920 97.377 C 299.536 97.992,299.607 98.252,300.383 99.078 L 301.299 100.053 302.142 99.073 C 305.765 94.860,299.835 89.935,294.620 92.826 M99.103 95.842 C 103.224 98.535,103.899 99.876,102.412 102.415 C 101.867 103.344,101.300 104.180,101.151 104.272 C 101.001 104.364,98.664 102.964,95.957 101.160 L 91.035 97.881 92.363 96.142 C 94.158 93.791,95.847 93.716,99.103 95.842 M302.799 102.246 C 298.899 104.472,295.561 106.354,295.380 106.428 C 295.034 106.570,296.115 108.955,296.525 108.955 C 296.656 108.955,298.037 108.210,299.594 107.299 C 304.219 104.594,305.824 104.302,306.732 106.000 C 307.392 107.232,306.440 108.196,302.384 110.403 C 300.354 111.507,298.629 112.467,298.551 112.537 C 298.311 112.747,299.322 114.925,299.660 114.925 C 300.432 114.925,307.345 110.876,308.640 109.666 C 310.705 107.735,310.284 105.000,307.758 103.938 L 306.609 103.455 309.275 101.872 C 312.284 100.084,312.141 100.280,311.338 99.054 C 310.513 97.795,310.750 97.706,302.799 102.246 M81.323 109.196 C 81.117 109.738,80.867 110.313,80.768 110.472 C 80.670 110.632,81.940 111.315,83.591 111.990 L 86.593 113.217 85.327 113.866 C 81.773 115.690,82.925 119.829,87.611 122.071 C 92.750 124.531,97.488 122.573,95.991 118.608 C 95.578 117.514,95.597 117.475,96.438 117.686 C 97.717 118.007,98.497 115.892,97.330 115.267 C 95.583 114.333,82.288 108.209,82.005 108.209 C 81.836 108.209,81.529 108.653,81.323 109.196 M309.142 113.686 C 307.500 114.415,304.931 115.573,303.434 116.259 L 300.711 117.505 301.316 118.677 C 302.018 120.033,301.765 120.068,306.973 117.891 C 310.655 116.351,310.804 116.321,311.730 116.928 C 314.031 118.436,312.967 119.692,307.401 122.041 C 303.508 123.684,303.494 123.697,304.164 125.169 C 304.719 126.387,304.575 126.407,309.191 124.462 C 313.943 122.460,314.742 121.960,315.484 120.524 C 316.385 118.782,314.965 116.083,312.873 115.563 C 312.171 115.388,312.177 115.361,312.988 115.102 C 313.593 114.909,313.774 114.648,313.598 114.223 C 313.461 113.891,313.264 113.326,313.160 112.966 C 312.909 112.091,312.610 112.145,309.142 113.686 M90.956 115.362 C 95.046 116.606,94.523 121.287,90.418 120.181 C 86.867 119.225,85.256 116.983,86.923 115.315 C 87.722 114.517,88.192 114.522,90.956 115.362 M80.905 124.222 C 78.815 125.872,78.330 129.471,79.959 131.250 C 81.341 132.760,83.016 131.042,81.869 129.291 C 81.072 128.075,81.940 126.493,83.404 126.493 C 84.314 126.493,84.328 126.540,84.328 129.631 C 84.328 132.678,84.362 132.798,85.476 133.735 C 88.767 136.504,93.392 133.166,91.406 129.455 C 91.077 128.841,91.138 128.749,91.825 128.827 C 92.451 128.898,92.738 128.609,93.123 127.519 L 93.618 126.119 92.154 126.119 C 91.350 126.119,89.408 125.610,87.841 124.987 C 83.875 123.412,82.171 123.224,80.905 124.222 M310.111 126.731 C 304.531 129.512,306.058 136.940,312.210 136.940 C 317.074 136.940,320.989 132.966,319.768 129.268 C 318.661 125.913,314.137 124.725,310.111 126.731 M88.834 128.702 C 90.307 130.175,89.915 131.530,88.017 131.530 C 86.756 131.530,86.754 131.526,86.641 129.571 C 86.506 127.225,87.115 126.983,88.834 128.702 M316.586 129.493 C 318.310 131.186,315.805 133.746,312.411 133.760 C 310.510 133.768,310.245 133.670,309.736 132.772 C 308.074 129.840,314.034 126.987,316.586 129.493 M77.368 135.795 C 75.758 136.776,75.438 138.359,76.455 140.309 C 77.016 141.386,77.093 141.791,76.738 141.791 C 75.048 141.791,74.005 145.215,75.183 146.896 C 75.694 147.626,75.682 147.675,75.033 147.505 C 74.267 147.305,73.489 149.421,74.123 149.982 C 74.435 150.259,86.240 152.692,86.413 152.516 C 86.461 152.466,86.612 151.826,86.749 151.095 L 86.998 149.764 82.958 148.906 C 78.468 147.954,77.800 147.691,77.249 146.660 C 76.163 144.632,78.347 144.258,83.824 145.535 C 87.661 146.430,88.060 146.344,88.060 144.618 C 88.060 143.407,87.963 143.300,86.660 143.072 C 80.011 141.906,78.855 141.480,78.501 140.070 C 77.979 137.990,78.900 137.804,84.193 138.923 C 89.505 140.046,89.140 140.084,89.416 138.380 L 89.622 137.115 84.270 136.092 C 77.938 134.882,78.805 134.919,77.368 135.795 M317.724 138.339 C 307.743 140.690,308.888 140.209,309.344 141.860 L 309.712 143.193 313.345 142.329 C 315.343 141.854,319.283 140.923,322.100 140.260 C 327.578 138.971,327.737 138.844,326.535 136.722 C 326.381 136.448,323.519 136.973,317.724 138.339 M315.292 144.224 C 308.866 146.222,309.593 154.361,316.235 154.783 C 320.785 155.073,323.835 153.106,324.165 149.668 C 324.572 145.434,320.143 142.716,315.292 144.224 M320.761 147.448 C 321.738 148.220,321.601 149.739,320.458 150.807 C 317.504 153.566,311.858 151.541,314.107 148.529 C 315.303 146.926,319.283 146.280,320.761 147.448 M74.750 154.633 C 72.685 155.558,72.100 158.014,73.515 159.813 L 74.269 160.772 73.329 161.712 C 72.163 162.878,72.097 164.587,73.160 166.080 C 73.915 167.141,73.916 167.164,73.202 167.164 C 72.391 167.164,71.795 169.363,72.541 169.603 C 72.916 169.724,83.644 170.522,84.896 170.522 C 85.289 170.522,85.448 170.103,85.448 169.066 L 85.448 167.609 81.437 167.344 C 76.594 167.023,75.000 166.478,75.000 165.144 C 75.000 163.611,75.941 163.395,80.849 163.802 C 83.276 164.003,85.387 164.170,85.541 164.173 C 85.695 164.176,85.821 163.507,85.821 162.687 C 85.821 161.866,85.695 161.184,85.541 161.172 C 85.387 161.161,83.368 161.015,81.053 160.848 C 77.841 160.617,76.671 160.388,76.109 159.879 C 73.526 157.541,77.489 156.525,84.780 157.655 C 85.838 157.818,86.770 155.616,85.961 154.864 C 85.302 154.252,76.027 154.060,74.750 154.633 M315.456 157.424 C 312.405 158.810,311.502 161.292,313.279 163.404 L 314.245 164.552 312.360 164.552 C 309.925 164.552,308.585 162.279,310.286 161.036 C 311.078 160.457,311.489 157.462,310.777 157.464 C 306.426 157.476,305.802 165.287,310.010 167.057 C 311.364 167.626,321.077 167.537,324.534 166.923 C 326.041 166.656,326.443 164.179,324.979 164.179 C 324.260 164.179,324.248 164.126,324.792 163.350 C 327.807 159.045,321.166 154.830,315.456 157.424 M322.164 160.485 C 324.220 162.102,322.398 164.179,318.925 164.179 C 315.768 164.179,314.304 162.590,315.765 160.749 C 316.802 159.440,320.636 159.283,322.164 160.485 M308.489 169.297 C 307.574 169.436,307.463 169.608,307.463 170.890 C 307.463 173.863,307.870 174.125,317.848 177.572 L 325.414 180.186 325.300 178.642 L 325.187 177.098 321.175 175.782 C 316.232 174.160,316.230 174.182,321.362 173.091 L 325.560 172.199 325.672 170.667 L 325.784 169.134 319.515 170.758 C 311.218 172.908,309.676 172.797,310.217 170.088 C 310.360 169.373,310.281 169.048,309.972 169.086 C 309.721 169.117,309.053 169.212,308.489 169.297 M83.396 172.398 C 82.575 172.561,80.229 172.818,78.182 172.968 C 74.793 173.218,74.369 173.335,73.425 174.279 C 71.141 176.563,73.001 182.090,76.054 182.090 C 76.934 182.090,76.841 179.860,75.922 178.941 C 74.855 177.874,74.762 177.157,75.586 176.333 C 76.624 175.295,77.139 175.694,78.034 178.232 C 79.290 181.788,81.547 182.968,84.336 181.526 C 86.415 180.451,86.826 178.048,85.252 176.176 C 84.314 175.062,84.313 175.055,85.099 174.806 C 85.688 174.619,85.834 174.350,85.674 173.751 C 85.555 173.309,85.456 172.738,85.453 172.481 C 85.450 172.225,85.322 172.034,85.168 172.058 C 85.014 172.081,84.216 172.234,83.396 172.398 M82.995 176.462 C 84.012 177.586,83.630 178.895,82.244 179.030 C 80.948 179.157,80.356 178.628,79.861 176.902 C 79.449 175.466,81.796 175.137,82.995 176.462 M128.087 180.224 C 128.087 181.147,128.159 181.525,128.248 181.063 C 128.337 180.602,128.337 179.846,128.248 179.384 C 128.159 178.923,128.087 179.300,128.087 180.224 M80.623 184.564 C 73.627 185.900,71.778 188.125,74.886 191.465 L 75.797 192.445 73.626 192.705 C 70.053 193.134,69.775 193.253,69.782 194.350 C 69.793 196.332,69.820 196.334,78.186 194.948 C 88.255 193.280,87.688 193.430,87.681 192.437 C 87.668 190.564,87.370 190.489,82.646 191.161 C 77.865 191.841,77.042 191.691,76.635 190.070 C 76.254 188.549,77.142 188.076,81.939 187.239 C 84.382 186.813,86.443 186.412,86.519 186.347 C 86.852 186.062,86.115 183.587,85.711 183.630 C 85.463 183.656,83.174 184.076,80.623 184.564 M312.647 188.245 C 309.339 190.043,309.153 196.522,312.362 198.159 C 314.052 199.021,326.509 201.641,326.889 201.215 C 327.753 200.245,327.565 198.557,326.571 198.356 C 326.015 198.243,323.131 197.700,320.163 197.148 C 313.947 195.992,312.788 195.329,313.206 193.166 C 313.740 190.401,315.144 190.199,323.072 191.750 L 328.420 192.796 328.762 191.896 C 329.433 190.133,329.333 190.078,323.228 188.859 C 316.835 187.583,314.151 187.427,312.647 188.245 M81.872 196.779 C 77.028 198.348,75.040 202.685,77.698 205.887 C 79.264 207.774,83.514 208.169,86.387 206.694 C 93.199 203.196,89.196 194.407,81.872 196.779 M86.657 200.391 C 87.915 201.945,86.830 203.725,84.171 204.469 C 81.475 205.224,79.478 204.442,79.478 202.631 C 79.478 199.857,84.864 198.177,86.657 200.391 M308.341 201.857 C 308.024 203.443,308.030 203.448,311.546 204.501 C 316.789 206.071,317.850 206.904,317.121 208.876 C 316.705 209.998,315.718 209.943,310.793 208.524 C 306.324 207.237,306.446 207.229,306.132 208.799 L 305.913 209.894 310.139 211.270 C 316.607 213.375,316.903 213.395,318.467 211.832 C 319.900 210.398,320.086 209.371,319.214 207.699 C 318.681 206.677,318.690 206.638,319.423 206.830 C 320.138 207.017,320.896 205.998,320.896 204.850 C 320.896 204.584,309.581 200.746,308.797 200.746 C 308.668 200.746,308.463 201.246,308.341 201.857 M82.947 210.906 L 74.663 214.243 75.422 216.170 C 75.840 217.230,76.241 218.156,76.314 218.229 C 76.387 218.302,79.009 217.930,82.141 217.403 C 85.274 216.875,87.888 216.495,87.951 216.558 C 88.013 216.620,85.883 218.125,83.216 219.901 L 78.368 223.131 79.141 225.092 C 79.566 226.170,79.962 227.101,80.021 227.160 C 80.081 227.220,83.850 225.793,88.397 223.989 C 96.435 220.800,96.658 220.683,96.440 219.776 C 96.044 218.127,95.690 218.139,91.164 219.953 C 83.824 222.895,83.007 223.201,83.396 222.863 C 83.601 222.684,86.161 220.969,89.086 219.051 C 94.500 215.502,94.918 215.026,93.874 213.599 C 93.353 212.886,93.255 212.891,87.297 213.915 C 83.970 214.487,81.184 214.891,81.107 214.813 C 81.030 214.736,83.444 213.663,86.472 212.429 C 91.804 210.255,91.975 210.151,91.899 209.137 C 91.769 207.400,91.531 207.448,82.947 210.906 M304.212 213.586 C 303.922 214.530,303.930 214.927,304.240 215.060 C 304.473 215.160,307.143 216.250,310.172 217.482 L 315.681 219.722 316.268 218.587 C 317.017 217.137,317.212 217.272,310.642 214.694 C 307.569 213.487,304.953 212.454,304.831 212.397 C 304.709 212.341,304.430 212.876,304.212 213.586 M317.945 219.090 C 317.719 219.739,317.577 220.309,317.629 220.357 C 318.691 221.328,320.471 221.492,320.852 220.654 C 321.479 219.280,321.383 219.039,319.975 218.451 C 318.310 217.756,318.423 217.720,317.945 219.090 M300.870 221.017 L 300.301 222.118 305.089 226.917 C 310.536 232.376,310.115 232.124,310.925 230.426 L 311.540 229.136 308.381 226.260 C 306.644 224.679,305.287 223.319,305.367 223.240 C 305.492 223.115,310.409 223.905,312.981 224.463 C 313.684 224.616,313.935 224.408,314.402 223.291 C 315.111 221.594,315.830 221.875,308.089 220.821 L 301.440 219.916 300.870 221.017 M296.798 229.435 C 294.605 230.773,294.025 232.899,295.167 235.416 L 295.914 237.062 297.017 236.005 C 297.833 235.224,298.018 234.825,297.727 234.474 C 296.391 232.864,298.528 230.723,300.551 231.644 L 301.504 232.079 299.650 235.038 C 297.621 238.276,297.622 238.284,300.139 239.327 C 306.319 241.887,310.442 235.951,305.552 231.534 C 302.584 228.852,299.117 228.021,296.798 229.435 M97.388 229.453 C 97.388 230.618,98.186 231.716,99.031 231.716 C 99.931 231.716,101.119 232.571,101.119 233.218 C 101.119 234.279,99.464 236.324,99.080 235.736 C 99.044 235.680,98.273 234.417,97.369 232.929 C 95.466 229.799,95.704 229.903,93.726 231.336 C 87.492 235.852,92.129 242.946,99.050 239.480 C 103.917 237.043,105.162 232.532,101.732 229.766 C 100.879 229.078,97.388 228.827,97.388 229.453 M304.168 233.826 C 305.569 235.094,304.824 237.319,303.004 237.308 C 301.097 237.296,300.905 236.797,302.088 234.925 C 303.324 232.970,303.259 233.004,304.168 233.826 M96.276 235.333 C 97.476 237.225,97.327 237.670,95.487 237.681 C 93.497 237.693,92.897 235.904,94.331 234.235 C 95.074 233.370,95.007 233.331,96.276 235.333 M290.932 237.888 C 290.109 239.018,290.131 239.055,292.806 241.062 C 297.565 244.633,298.535 246.011,297.027 247.063 C 296.307 247.565,296.311 247.594,297.239 248.650 C 298.609 250.210,300.133 249.449,299.928 247.308 C 299.789 245.841,299.944 245.616,300.626 246.297 C 300.913 246.584,301.248 246.390,301.799 245.616 L 302.571 244.532 297.350 240.736 C 291.497 236.481,291.844 236.634,290.932 237.888 M104.384 238.690 C 102.907 239.076,103.989 241.299,105.746 241.488 C 107.339 241.660,107.760 242.577,106.988 244.196 C 106.146 245.961,106.069 245.930,103.810 242.910 C 101.557 239.901,101.252 239.811,99.619 241.671 C 94.460 247.546,99.991 253.214,106.505 248.728 C 112.106 244.870,110.465 237.101,104.384 238.690 M102.884 245.256 C 103.982 246.688,104.034 246.870,103.466 247.295 C 101.578 248.707,99.415 246.814,100.609 244.794 C 101.451 243.368,101.434 243.365,102.884 245.256 M115.983 244.339 C 115.250 244.682,112.113 247.140,109.012 249.800 L 103.372 254.638 104.350 255.659 L 105.329 256.680 108.673 253.806 C 116.026 247.488,116.417 247.208,117.202 247.698 C 117.987 248.188,120.149 247.388,120.149 246.608 C 120.149 244.733,117.835 243.472,115.983 244.339 M285.968 244.717 C 282.594 246.839,282.318 251.545,285.478 253.075 C 287.050 253.837,288.834 253.334,291.484 251.382 C 292.034 250.977,292.747 250.747,293.070 250.871 C 294.440 251.396,293.161 253.731,291.503 253.731 C 290.711 253.731,289.552 254.990,289.552 255.850 C 289.552 257.675,293.566 256.596,295.212 254.328 C 298.423 249.905,294.324 246.300,289.253 249.088 C 286.652 250.518,285.821 250.530,285.821 249.137 C 285.821 247.970,286.831 247.103,288.366 246.951 C 289.591 246.830,291.158 245.138,290.581 244.561 C 289.935 243.915,287.091 244.012,285.968 244.717 M115.752 250.532 C 115.521 251.040,113.939 252.904,112.237 254.675 C 108.695 258.360,108.399 258.914,109.090 260.568 C 110.277 263.410,113.900 265.098,115.811 263.700 C 116.781 262.991,115.289 261.088,114.014 261.408 C 112.838 261.704,111.402 259.960,111.962 258.915 C 112.461 257.982,112.707 258.013,115.172 259.328 C 117.661 260.657,118.939 260.734,120.331 259.639 C 123.134 257.434,122.518 253.944,119.163 253.022 C 118.527 252.848,118.135 252.508,118.191 252.181 C 118.242 251.879,117.809 251.177,117.228 250.621 L 116.172 249.610 115.752 250.532 M278.849 252.569 L 278.034 253.604 282.595 258.155 L 287.156 262.705 288.160 261.657 L 289.165 260.609 284.596 256.051 C 279.435 250.902,279.927 251.200,278.849 252.569 M118.434 254.965 C 119.861 256.008,118.544 258.170,116.756 257.720 C 114.682 257.200,114.247 256.451,115.413 255.411 C 116.582 254.369,117.444 254.241,118.434 254.965 M266.631 256.854 C 264.743 258.635,264.823 259.033,269.420 270.613 C 271.647 276.223,271.554 276.109,272.943 274.907 L 273.912 274.067 272.456 270.709 C 270.068 265.204,270.000 265.287,274.274 268.467 L 278.090 271.307 279.140 270.302 L 280.189 269.297 278.807 268.307 C 278.047 267.763,275.525 266.006,273.203 264.402 C 270.731 262.695,268.840 261.117,268.641 260.593 C 268.239 259.535,268.876 257.836,269.675 257.836 C 270.066 257.836,269.997 257.550,269.403 256.716 C 268.403 255.312,268.258 255.319,266.631 256.854 M100.759 256.889 C 99.935 257.767,99.924 257.850,100.516 258.755 C 101.296 259.945,101.877 259.949,102.985 258.769 L 103.861 257.836 102.985 256.903 C 101.905 255.753,101.827 255.752,100.759 256.889 M274.627 256.608 C 272.746 257.299,272.324 258.629,273.565 259.950 C 274.296 260.727,274.410 260.750,274.817 260.193 C 275.463 259.309,276.100 259.699,278.533 262.471 C 280.657 264.890,280.687 264.954,280.018 265.693 C 278.999 266.819,280.882 268.817,282.005 267.800 C 282.659 267.209,282.773 267.255,284.147 268.662 C 285.735 270.289,285.988 270.242,286.339 268.259 C 286.536 267.149,286.421 266.784,285.643 266.053 C 284.919 265.373,284.806 265.063,285.134 264.667 C 285.741 263.936,284.064 262.132,283.338 262.735 C 282.952 263.054,282.447 262.699,281.078 261.144 C 277.113 256.640,276.230 256.019,274.627 256.608 M119.543 264.446 C 113.138 272.575,113.545 271.875,114.578 272.975 C 115.711 274.182,115.592 274.243,117.910 271.269 C 120.326 268.170,119.947 268.243,122.561 270.373 C 124.935 272.307,124.984 271.820,122.042 275.563 L 120.390 277.665 121.483 278.546 C 122.796 279.605,122.048 280.282,128.697 272.015 L 133.949 265.485 132.926 264.647 C 131.564 263.532,131.763 263.430,129.104 266.604 C 126.334 269.913,126.783 269.817,124.310 267.626 L 122.314 265.858 124.647 262.937 L 126.979 260.016 125.876 258.913 L 124.772 257.809 119.543 264.446 M289.418 262.915 C 288.730 263.861,288.732 263.874,289.775 264.964 L 290.826 266.060 291.759 265.127 L 292.692 264.194 291.612 263.067 C 290.316 261.714,290.295 261.713,289.418 262.915 M142.351 276.628 C 138.307 278.507,137.103 284.061,140.044 287.269 C 144.594 292.234,152.947 288.155,151.712 281.572 C 150.943 277.473,146.070 274.900,142.351 276.628 M252.052 276.626 C 245.320 279.741,248.055 290.084,255.449 289.471 C 263.705 288.787,263.553 276.700,255.282 276.228 C 254.019 276.156,252.722 276.316,252.052 276.626 M164.590 280.858 C 162.393 289.173,160.776 296.369,161.049 296.619 C 161.231 296.787,161.994 297.033,162.743 297.166 L 164.105 297.408 164.962 293.853 C 165.936 289.812,165.730 289.940,169.699 290.910 C 172.975 291.710,172.861 291.463,171.830 295.514 C 171.183 298.059,171.050 299.119,171.356 299.308 C 171.847 299.611,174.281 300.105,174.431 299.931 C 174.716 299.600,178.420 283.147,178.248 282.975 C 178.137 282.864,177.373 282.683,176.550 282.572 C 174.883 282.349,175.101 281.986,173.856 287.034 C 173.616 288.008,173.357 288.806,173.281 288.806 C 172.810 288.806,167.302 287.193,167.085 286.991 C 166.939 286.856,167.146 285.488,167.545 283.951 C 168.475 280.371,168.473 280.350,167.257 280.060 C 166.693 279.925,165.946 279.731,165.598 279.628 C 165.117 279.485,164.874 279.782,164.590 280.858 M230.285 280.273 C 229.417 280.525,229.103 280.802,229.250 281.185 C 230.126 283.468,232.162 292.945,231.954 293.774 C 231.416 295.918,227.412 296.599,226.063 294.776 C 225.683 294.263,224.724 291.325,223.931 288.246 L 222.491 282.649 221.062 282.740 C 220.276 282.789,219.505 282.957,219.350 283.113 C 219.019 283.444,221.801 294.772,222.587 296.292 C 224.723 300.423,233.174 299.720,235.153 295.246 L 235.894 293.571 234.925 289.230 C 232.779 279.607,232.751 279.554,230.285 280.273 M186.312 284.656 C 181.257 287.031,183.548 293.004,190.112 294.561 C 191.982 295.005,192.910 295.806,192.910 296.978 C 192.910 300.116,186.573 299.672,186.121 296.502 C 185.951 295.312,182.463 295.081,182.463 296.260 C 182.463 299.779,186.384 302.535,190.855 302.159 C 197.835 301.571,198.876 293.997,192.308 291.599 C 186.974 289.652,186.096 288.900,187.666 287.628 C 189.249 286.346,192.238 287.039,192.864 288.833 C 193.366 290.273,196.642 290.541,196.642 289.142 C 196.642 285.318,190.542 282.669,186.312 284.656 M208.769 284.200 C 207.948 284.266,205.891 284.421,204.198 284.544 L 201.119 284.768 201.119 286.228 L 201.119 287.687 203.865 287.687 L 206.610 287.687 207.064 294.123 C 207.640 302.283,207.507 301.866,209.540 301.866 C 210.450 301.866,211.191 301.740,211.186 301.586 C 211.182 301.432,210.934 298.368,210.634 294.776 C 210.335 291.185,210.087 287.952,210.082 287.593 C 210.076 287.082,210.389 286.940,211.521 286.940 C 214.562 286.940,215.299 286.604,215.299 285.215 L 215.299 283.955 212.780 284.018 C 211.395 284.052,209.590 284.135,208.769 284.200 " stroke="none" fill="#f6f6f6" fill-rule="evenodd"></path><path id="path4" d="M156.376 181.923 L 153.636 186.615 152.557 184.726 L 151.477 182.836 139.545 182.836 C 127.890 182.836,127.612 182.853,127.612 183.577 C 127.612 184.297,127.922 184.320,138.894 184.416 L 150.176 184.515 151.674 187.028 C 153.599 190.258,153.725 190.206,156.723 184.959 L 159.240 180.553 159.981 181.788 C 160.389 182.467,161.513 184.492,162.481 186.287 C 164.692 190.392,164.592 190.415,167.760 185.052 L 170.409 180.570 172.891 184.717 C 174.256 186.998,175.373 189.019,175.373 189.208 C 175.373 190.461,176.703 188.931,179.021 185.010 L 181.706 180.468 182.551 182.390 L 183.396 184.311 188.354 184.320 C 192.793 184.327,193.478 184.240,194.884 183.489 L 196.455 182.649 190.558 182.463 L 184.661 182.276 183.468 179.863 C 181.872 176.632,181.919 176.611,178.788 181.967 L 176.047 186.657 173.378 181.950 C 171.073 177.885,169.776 176.314,169.776 177.587 C 169.776 178.116,165.051 185.871,164.725 185.877 C 164.568 185.880,163.395 183.987,162.117 181.669 C 159.209 176.396,159.614 176.378,156.376 181.923 M245.240 181.948 L 242.588 186.658 241.536 184.752 C 240.137 182.215,239.019 182.061,239.755 184.507 C 240.318 186.377,242.071 189.552,242.540 189.552 C 242.708 189.552,244.054 187.531,245.531 185.060 L 248.217 180.568 250.696 184.962 C 253.845 190.544,253.754 190.542,256.716 185.077 C 258.050 182.615,259.226 180.603,259.328 180.606 C 259.431 180.608,260.612 182.579,261.953 184.985 C 264.871 190.222,265.063 190.302,266.899 187.032 C 267.676 185.648,268.831 183.683,269.465 182.667 L 270.618 180.818 271.510 182.573 L 272.402 184.328 279.298 184.328 C 285.763 184.328,286.194 184.285,286.194 183.637 C 286.194 182.841,283.237 182.463,277.025 182.463 L 273.566 182.463 272.362 179.851 C 270.802 176.466,270.788 176.472,267.727 181.721 C 266.292 184.181,265.033 186.192,264.928 186.189 C 264.824 186.187,263.571 184.172,262.144 181.712 C 260.717 179.252,259.458 177.242,259.346 177.246 C 259.234 177.250,257.966 179.262,256.530 181.716 C 255.093 184.171,253.834 186.177,253.731 186.175 C 253.464 186.169,248.881 178.094,248.881 177.628 C 248.881 176.273,247.542 177.861,245.240 181.948 M95.149 183.582 C 95.149 184.294,95.398 184.328,100.560 184.328 C 105.721 184.328,105.970 184.294,105.970 183.582 C 105.970 182.870,105.721 182.836,100.560 182.836 C 95.398 182.836,95.149 182.870,95.149 183.582 M292.537 183.592 C 292.537 184.680,303.079 184.578,303.288 183.489 C 303.402 182.891,302.953 182.836,297.975 182.836 C 292.762 182.836,292.537 182.867,292.537 183.592 " stroke="none" fill="#f7951c" fill-rule="evenodd"></path></g></svg>