<?xml version="1.0" standalone="no"?>
<!DOCTYPE svg PUBLIC "-//W3C//DTD SVG 20010904//EN"
 "http://www.w3.org/TR/2001/REC-SVG-20010904/DTD/svg10.dtd">
<svg version="1.0" xmlns="http://www.w3.org/2000/svg"
 width="1200.000000pt" height="594.000000pt" viewBox="0 0 1200.000000 594.000000"
 preserveAspectRatio="xMidYMid meet">
<metadata>
Created by potrace 1.16, written by Peter Selinger 2001-2019
</metadata>
<g transform="translate(0.000000,594.000000) scale(0.100000,-0.100000)"
fill="#000000" stroke="none">
<path d="M790 4450 l0 -700 160 0 160 0 0 700 0 700 -160 0 -160 0 0 -700z"/>
<path d="M2397 5143 c-4 -3 -7 -48 -7 -100 l0 -93 386 -2 386 -3 -406 -533
-406 -532 0 -70 0 -70 599 0 600 0 10 53 c6 28 15 73 20 99 l8 48 -412 2 -412
3 408 535 409 535 0 68 0 67 -588 0 c-324 0 -592 -3 -595 -7z"/>
<path d="M5271 5068 c-21 -46 -172 -361 -335 -702 -163 -340 -296 -620 -296
-622 0 -3 64 -3 141 -2 l142 3 81 207 81 208 265 0 266 0 76 -207 76 -208 171
-3 c133 -2 171 0 171 10 0 7 -127 325 -282 705 l-283 693 -118 0 -118 0 -38
-82z m188 -487 c50 -135 91 -246 91 -248 0 -2 -88 -3 -195 -3 -107 0 -195 2
-195 5 0 5 141 353 185 459 9 21 18 36 20 34 2 -2 45 -113 94 -247z"/>
<path d="M8800 4545 l0 -65 65 0 65 0 0 65 0 65 -65 0 -65 0 0 -65z"/>
<path d="M6880 4165 l0 -405 65 0 65 0 0 405 0 405 -65 0 -65 0 0 -405z"/>
<path d="M8440 4502 l-45 -17 -3 -68 -3 -67 -64 0 -65 0 0 -45 0 -45 65 0 65
0 0 -157 c0 -248 14 -299 95 -340 32 -17 123 -23 168 -10 25 7 27 11 27 58 l0
51 -32 -8 c-53 -12 -81 -6 -105 21 -22 25 -23 34 -23 206 l0 179 75 0 75 0 0
45 0 45 -75 0 -75 0 0 85 c0 97 -1 97 -80 67z"/>
<path d="M9203 4503 l-43 -15 0 -69 0 -69 -65 0 -65 0 0 -45 0 -45 65 0 65 0
0 -192 c0 -169 3 -198 20 -235 33 -73 122 -106 221 -83 l49 12 0 49 c0 53 -5
56 -60 40 -14 -4 -38 -3 -53 2 -49 16 -57 48 -57 237 l0 170 75 0 75 0 0 45 0
45 -75 0 -75 0 0 85 c0 96 0 96 -77 68z"/>
<path d="M10363 4503 l-43 -15 0 -69 0 -69 -70 0 -70 0 0 -45 0 -45 70 0 70 0
0 -201 c0 -128 4 -208 11 -222 39 -75 125 -110 220 -87 l49 12 0 49 0 50 -37
-7 c-57 -11 -74 -8 -102 21 -26 25 -26 27 -29 205 l-3 180 80 0 81 0 0 45 0
45 -75 0 -75 0 0 85 c0 96 0 96 -77 68z"/>
<path d="M7407 4356 c-39 -14 -64 -31 -84 -56 -10 -12 -12 -9 -13 23 l0 37
-60 0 -60 0 0 -295 0 -295 59 0 59 0 4 183 c3 166 5 186 26 229 28 57 76 89
132 90 48 0 83 -21 107 -65 15 -27 18 -65 21 -239 l4 -208 59 0 59 0 0 203 c0
111 -5 222 -11 247 -14 62 -50 113 -96 135 -49 24 -156 30 -206 11z"/>
<path d="M7932 4344 c-64 -32 -92 -79 -92 -152 0 -70 28 -106 127 -161 111
-62 125 -75 121 -113 -7 -67 -99 -91 -192 -49 l-44 19 -4 -57 c-3 -34 -1 -59
5 -63 23 -14 143 -29 187 -23 55 8 116 40 143 77 39 52 39 154 0 207 -11 14
-60 47 -109 74 -95 50 -114 68 -114 104 0 53 64 76 154 56 32 -7 60 -12 62
-11 1 2 5 24 9 49 l7 47 -52 11 c-86 19 -150 14 -208 -15z"/>
<path d="M10870 4361 c-78 -25 -137 -78 -172 -156 -17 -39 -22 -68 -22 -135 0
-148 51 -244 156 -291 44 -19 70 -24 148 -24 52 0 116 6 143 14 l47 14 0 62 0
62 -59 -30 c-124 -61 -249 -25 -296 86 -29 70 -38 67 194 67 l208 0 -4 53
c-10 132 -47 211 -120 253 -37 22 -61 28 -122 30 -42 2 -87 0 -101 -5z m111
-91 c19 -5 47 -22 61 -37 22 -25 48 -80 48 -104 0 -5 -66 -9 -146 -9 l-146 0
6 32 c9 45 56 101 97 115 43 15 37 15 80 3z"/>
<path d="M8810 4060 l0 -300 60 0 60 0 0 300 0 300 -60 0 -60 0 0 -300z"/>
<path d="M9562 4138 c5 -238 11 -273 61 -327 70 -75 222 -82 315 -14 l32 24 0
-30 0 -31 60 0 60 0 0 295 0 295 -60 0 -60 0 0 -174 c0 -177 -6 -217 -42 -269
-41 -57 -135 -78 -187 -40 -43 33 -53 80 -58 296 l-6 197 -60 0 -59 0 4 -222z"/>
<path d="M1751 3110 c-93 -19 -129 -72 -138 -206 l-6 -84 -68 0 -69 0 0 -45 0
-45 70 0 70 0 0 -250 0 -250 60 0 60 0 0 250 0 250 75 0 75 0 0 50 0 50 -75 0
-75 0 0 60 c0 32 5 70 11 84 15 31 56 49 106 44 l38 -3 3 48 c3 41 1 47 -16
47 -11 0 -32 2 -48 4 -16 3 -49 0 -73 -4z"/>
<path d="M3540 2660 l0 -440 55 0 55 0 0 42 0 42 28 -26 c39 -37 81 -56 140
-64 113 -15 215 43 263 148 21 46 24 68 24 168 0 130 -15 179 -74 238 -56 55
-87 67 -181 67 -88 0 -128 -13 -171 -56 -19 -19 -19 -17 -19 151 l0 170 -60 0
-60 0 0 -440z m369 53 c14 -11 36 -39 49 -64 48 -92 12 -264 -67 -316 -123
-82 -263 66 -230 242 25 132 156 205 248 138z"/>
<path d="M10050 3015 l0 -65 70 0 70 0 0 65 0 65 -70 0 -70 0 0 -65z"/>
<path d="M2320 2630 l0 -410 230 0 230 0 0 55 0 55 -165 0 -165 0 0 355 0 355
-65 0 -65 0 0 -410z"/>
<path d="M5750 2630 l0 -410 230 0 230 0 0 55 0 55 -165 0 -165 0 0 130 0 130
150 0 150 0 0 55 0 55 -150 0 -150 0 0 115 0 115 165 0 165 0 0 55 0 55 -230
0 -230 0 0 -410z"/>
<path d="M6553 2830 c-48 -11 -118 -56 -152 -97 -45 -54 -66 -124 -66 -218 0
-67 5 -89 28 -137 34 -69 101 -131 164 -152 53 -18 160 -21 215 -6 l37 11 -6
52 c-3 29 -7 53 -8 55 -1 1 -18 -5 -38 -13 -86 -36 -189 -5 -233 70 -73 126
-19 299 105 336 37 11 52 11 103 -3 66 -17 63 -18 71 48 l5 42 -56 11 c-62 12
-121 13 -169 1z"/>
<path d="M7817 2826 c-38 -14 -69 -36 -94 -66 -10 -12 -12 -9 -13 23 l0 37
-50 0 -50 0 0 -300 0 -300 60 0 60 0 0 178 c0 97 5 194 10 214 27 98 131 154
209 113 52 -26 63 -76 69 -302 l5 -203 53 0 54 0 0 208 c0 244 -10 294 -69
353 -56 57 -158 75 -244 45z"/>
<path d="M10522 2821 c-76 -26 -122 -67 -161 -145 -32 -61 -35 -75 -35 -150 0
-74 4 -91 32 -149 38 -76 93 -129 160 -151 53 -18 175 -21 221 -5 32 11 35 19
25 80 l-6 36 -37 -13 c-121 -44 -234 16 -261 139 -35 156 65 291 203 273 28
-4 59 -12 70 -17 24 -13 23 -14 31 48 l6 51 -50 11 c-73 16 -137 13 -198 -8z"/>
<path d="M1000 2821 c-73 -24 -137 -77 -173 -145 -19 -35 -22 -57 -22 -151 0
-100 2 -115 27 -161 58 -111 168 -172 293 -162 117 10 204 71 253 177 22 46
26 71 26 141 0 100 -23 162 -82 223 -60 63 -104 80 -207 84 -49 1 -101 -1
-115 -6z m170 -103 c107 -54 143 -214 73 -326 -38 -61 -83 -84 -154 -80 -105
7 -163 78 -163 203 0 61 4 78 30 125 23 39 43 61 74 77 54 29 84 29 140 1z"/>
<path d="M2993 2811 c-74 -27 -73 -26 -66 -79 3 -26 7 -48 8 -50 1 -1 26 10
56 25 42 22 66 28 119 28 76 0 113 -19 129 -67 22 -63 20 -65 -84 -72 -120 -9
-179 -27 -229 -67 -69 -57 -86 -146 -43 -229 34 -69 88 -92 199 -88 79 3 90 6
132 35 l46 33 0 -30 c0 -30 1 -30 55 -30 l55 0 0 188 c0 215 -10 290 -44 342
-36 55 -84 74 -191 77 -69 3 -102 -1 -142 -16z m254 -360 c-12 -102 -62 -151
-153 -151 -40 0 -57 5 -77 24 -35 32 -42 67 -23 104 14 28 35 39 116 66 8 2
44 5 79 5 l64 1 -6 -49z"/>
<path d="M4407 2816 c-100 -36 -155 -98 -183 -205 -40 -158 31 -325 164 -384
150 -66 324 -7 400 137 24 46 27 61 27 156 0 95 -3 110 -27 156 -33 63 -95
118 -156 138 -56 19 -173 20 -225 2z m179 -96 c178 -87 126 -410 -66 -410
-117 0 -189 95 -177 231 8 91 47 153 117 183 48 21 76 20 126 -4z"/>
<path d="M5145 2818 c-11 -6 -32 -22 -47 -36 l-28 -26 0 32 0 32 -60 0 -60 0
0 -300 0 -300 60 0 60 0 0 133 c1 225 22 310 90 355 28 19 44 23 83 19 l47 -4
0 53 0 54 -62 0 c-35 0 -72 -6 -83 -12z"/>
<path d="M7060 2821 c-80 -25 -141 -80 -179 -161 -21 -45 -26 -70 -26 -141 0
-79 3 -92 35 -155 41 -81 95 -126 177 -150 159 -46 316 32 374 185 17 45 20
72 17 137 -7 138 -76 241 -186 278 -47 17 -168 20 -212 7z m186 -113 c50 -33
87 -114 87 -187 -1 -123 -73 -211 -173 -211 -108 0 -180 86 -180 216 0 160
148 262 266 182z"/>
<path d="M8454 2814 c-60 -21 -119 -77 -151 -142 -24 -50 -28 -68 -28 -147 0
-76 4 -99 26 -146 32 -68 87 -124 148 -153 71 -32 199 -30 267 6 105 55 164
159 164 288 0 136 -76 256 -185 293 -60 21 -184 21 -241 1z m209 -103 c52 -32
90 -110 89 -185 0 -127 -70 -216 -171 -216 -110 0 -180 80 -181 205 0 64 30
145 66 177 57 50 135 58 197 19z"/>
<path d="M9210 2814 c-19 -8 -45 -25 -57 -36 l-23 -21 0 31 0 32 -55 0 -55 0
0 -300 0 -300 60 0 60 0 0 173 c0 198 13 263 61 308 59 55 133 46 166 -19 15
-32 18 -69 21 -249 l4 -213 59 0 59 0 0 181 c0 113 5 197 12 222 26 87 116
140 174 102 48 -31 54 -66 54 -295 l0 -210 60 0 60 0 0 233 c0 204 -3 237 -19
272 -35 76 -85 105 -182 105 -68 0 -118 -21 -163 -69 l-29 -30 -21 31 c-31 46
-80 68 -151 68 -33 -1 -76 -8 -95 -16z"/>
<path d="M10934 2811 c-95 -43 -133 -168 -76 -249 12 -16 61 -50 113 -77 50
-27 98 -59 106 -72 36 -55 -26 -118 -108 -109 -25 2 -62 13 -82 22 -20 10 -39
16 -41 13 -3 -2 -8 -28 -12 -56 -6 -51 -6 -53 22 -64 47 -18 176 -23 220 -9
84 27 133 91 134 172 0 84 -31 122 -151 184 -100 52 -124 84 -95 128 22 34 76
43 148 24 65 -17 68 -14 68 52 0 37 -2 40 -37 49 -60 17 -163 13 -209 -8z"/>
<path d="M10060 2520 l0 -300 60 0 60 0 0 300 0 300 -60 0 -60 0 0 -300z"/>
<path d="M790 1690 l0 -40 5213 2 5212 3 0 35 0 35 -5212 3 -5213 2 0 -40z"/>
<path d="M2960 1191 l0 -80 -27 15 c-97 50 -193 -25 -193 -152 0 -110 54 -169
145 -159 28 3 71 5 98 4 l47 0 0 225 0 226 -35 0 -35 0 0 -79z m-45 -117 c41
-16 58 -109 30 -164 -17 -32 -59 -49 -84 -33 -29 19 -53 61 -58 104 -8 74 45
118 112 93z"/>
<path d="M3280 1045 l0 -225 29 0 c16 0 31 5 33 10 2 7 16 5 37 -6 22 -11 47
-15 78 -11 81 9 118 70 111 183 -5 78 -28 113 -87 134 -37 13 -46 13 -86 -1
l-45 -17 0 79 0 79 -35 0 -35 0 0 -225z m204 16 c54 -60 13 -191 -60 -191 -35
0 -74 54 -74 101 0 43 21 94 42 102 30 12 76 6 92 -12z"/>
<path d="M5950 1045 l0 -225 29 0 29 0 4 104 c3 94 6 108 27 130 31 33 74 34
95 4 12 -17 16 -49 16 -130 l0 -108 35 0 35 0 0 113 c0 87 -4 120 -18 147 -28
57 -95 76 -156 45 -15 -8 -30 -15 -32 -15 -2 0 -4 36 -4 80 l0 80 -30 0 -30 0
0 -225z"/>
<path d="M9700 1191 l0 -79 -39 15 c-115 45 -211 -58 -183 -197 16 -75 62
-120 124 -120 24 0 55 7 71 14 15 8 27 11 27 5 0 -5 14 -9 30 -9 l30 0 0 225
0 225 -30 0 -30 0 0 -79z m-31 -137 c63 -80 7 -213 -75 -176 -34 16 -68 92
-59 134 16 69 94 93 134 42z"/>
<path d="M790 1030 l0 -210 35 0 35 0 0 210 0 210 -35 0 -35 0 0 -210z"/>
<path d="M4110 1030 l0 -210 83 0 c184 0 267 67 267 214 -1 94 -56 173 -138
196 -20 5 -76 10 -124 10 l-88 0 0 -210z m171 140 c19 -5 48 -24 65 -41 27
-28 29 -36 29 -104 0 -64 -3 -77 -24 -99 -28 -30 -77 -46 -138 -46 l-43 0 0
150 0 150 38 0 c20 0 53 -5 73 -10z"/>
<path d="M6800 1030 l0 -210 35 0 35 0 0 85 0 85 58 0 c100 0 162 63 147 150
-12 72 -65 100 -191 100 l-84 0 0 -210z"/>
<path d="M8110 1030 l0 -210 35 0 35 0 0 95 0 95 80 0 c79 0 80 0 80 25 0 25
-1 25 -80 25 l-80 0 0 60 0 60 80 0 80 0 0 30 0 30 -115 0 -115 0 0 -210z"/>
<path d="M1523 1200 c-17 -7 -23 -18 -23 -40 0 -28 -3 -30 -35 -30 -32 0 -35
-2 -35 -30 0 -27 3 -30 34 -30 l34 0 4 -111 c3 -102 5 -112 27 -130 16 -13 39
-19 72 -19 48 0 49 1 49 31 0 26 -3 29 -20 24 -10 -3 -28 -1 -40 5 -18 10 -20
20 -20 105 l0 95 40 0 c38 0 40 2 40 30 0 28 -2 30 -40 30 l-40 0 0 40 c0 42
-7 46 -47 30z"/>
<path d="M2243 1200 c-17 -7 -23 -18 -23 -40 0 -27 -3 -30 -30 -30 -27 0 -30
-3 -30 -30 0 -27 3 -30 30 -30 l30 0 0 -89 c0 -139 21 -171 110 -171 38 0 40
2 40 30 0 27 -3 30 -24 24 -43 -10 -56 17 -56 117 l0 89 40 0 c38 0 40 2 40
30 0 28 -2 30 -40 30 l-40 0 0 40 c0 42 -7 46 -47 30z"/>
<path d="M5273 1200 c-17 -7 -23 -18 -23 -40 0 -28 -3 -30 -35 -30 -32 0 -35
-2 -35 -30 0 -28 3 -30 35 -30 l35 0 0 -105 c0 -99 2 -107 25 -130 19 -20 34
-25 75 -25 49 0 50 0 50 31 0 29 -2 30 -29 24 -45 -10 -61 21 -61 122 l0 83
40 0 c38 0 40 2 40 30 0 28 -2 30 -40 30 l-40 0 0 40 c0 42 -2 44 -37 30z"/>
<path d="M7768 1203 c-13 -3 -18 -15 -18 -39 0 -32 -2 -34 -35 -34 -32 0 -35
-2 -35 -30 0 -28 3 -30 35 -30 l35 0 0 -109 c0 -107 1 -110 27 -131 20 -16 38
-20 72 -18 42 3 46 5 49 31 3 27 2 29 -26 22 -50 -11 -62 12 -62 116 l0 89 40
0 c38 0 40 2 40 30 0 28 -2 30 -40 30 l-40 0 0 40 c0 40 -4 43 -42 33z"/>
<path d="M10228 1203 c-13 -3 -18 -15 -18 -39 0 -32 -2 -34 -35 -34 -32 0 -35
-2 -35 -30 0 -28 3 -30 35 -30 l35 0 0 -109 c0 -106 1 -110 26 -130 19 -15 41
-21 75 -21 48 0 49 1 49 31 0 29 -2 31 -26 25 -18 -5 -32 -2 -45 10 -16 14
-19 32 -19 106 l0 88 40 0 c38 0 40 2 40 30 0 28 -2 30 -40 30 l-40 0 0 40 c0
40 -4 43 -42 33z"/>
<path d="M1053 1125 c-18 -8 -33 -10 -33 -5 0 6 -16 10 -35 10 l-35 0 0 -155
0 -155 35 0 35 0 0 104 c0 89 3 107 21 130 15 19 30 26 55 26 30 0 37 -5 50
-35 9 -22 14 -69 14 -130 l0 -95 30 0 30 0 0 120 c0 138 -11 171 -61 189 -42
14 -67 13 -106 -4z"/>
<path d="M1930 1127 c-36 -12 -49 -39 -32 -65 7 -10 14 -10 38 3 41 21 71 19
99 -10 35 -34 31 -45 -18 -45 -97 0 -157 -38 -157 -101 0 -51 8 -67 41 -84 36
-19 92 -19 129 0 17 9 30 11 30 5 0 -5 14 -10 30 -10 l30 0 -1 108 c0 132 -12
171 -59 194 -40 21 -80 22 -130 5z"/>
<path d="M2490 1122 c-53 -26 -80 -74 -80 -141 0 -64 22 -115 62 -144 31 -23
108 -33 158 -20 31 8 35 13 38 46 4 42 4 42 -34 22 -47 -24 -91 -19 -125 14
-53 53 -43 61 76 61 l105 0 0 33 c0 17 -9 51 -20 75 -30 67 -108 91 -180 54z"/>
<path d="M4615 1133 c-65 -18 -98 -71 -99 -159 0 -127 83 -186 223 -158 28 6
31 10 31 44 l0 38 -43 -16 c-25 -9 -54 -13 -70 -9 -32 9 -67 44 -67 69 0 16
10 18 105 18 117 0 114 -3 94 75 -15 59 -53 94 -109 99 -25 3 -54 2 -65 -1z"/>
<path d="M5485 1131 c-40 -17 -56 -46 -53 -92 3 -37 8 -47 38 -66 73 -46 86
-60 74 -80 -12 -19 -63 -24 -95 -9 -11 5 -19 -1 -28 -20 -16 -36 -3 -44 77
-44 54 0 67 4 87 25 17 17 25 35 25 60 0 52 -14 72 -71 101 -40 20 -50 29 -47
47 3 20 9 22 55 21 47 -2 52 0 58 23 3 14 4 27 2 29 -9 10 -103 13 -122 5z"/>
<path d="M5745 1130 c-74 -30 -108 -149 -67 -230 26 -53 74 -80 143 -80 63 0
74 8 65 46 -5 20 -10 23 -26 14 -78 -42 -162 47 -126 135 20 48 56 68 105 60
37 -6 41 -5 47 19 3 14 3 30 -1 35 -7 13 -111 14 -140 1z"/>
<path d="M6371 1122 c-54 -27 -75 -63 -79 -135 -4 -70 15 -117 60 -150 31 -23
108 -33 158 -20 31 8 35 13 38 46 4 42 4 42 -34 22 -61 -31 -132 -6 -149 53
-6 22 -6 22 99 22 l106 0 0 38 c0 78 -60 142 -135 142 -16 0 -45 -8 -64 -18z"/>
<path d="M7193 1120 c-77 -39 -104 -140 -62 -227 52 -108 210 -111 272 -5 23
39 24 129 3 170 -37 72 -137 101 -213 62z m128 -69 c61 -61 26 -180 -54 -181
-42 0 -87 49 -87 95 0 98 80 146 141 86z"/>
<path d="M7513 1125 c-36 -15 -53 -41 -53 -80 0 -41 17 -63 69 -90 55 -27 67
-47 44 -71 -16 -16 -58 -16 -94 0 -12 5 -18 0 -23 -20 -9 -36 5 -44 76 -44 76
0 110 27 112 89 1 46 -7 55 -84 105 -21 13 -35 30 -35 41 0 17 7 20 55 20 52
0 55 1 58 26 3 22 -2 27 -29 33 -44 9 -59 7 -96 -9z"/>
<path d="M8472 1121 c-77 -36 -105 -145 -59 -231 54 -102 200 -108 264 -11 28
41 32 135 8 181 -36 69 -134 97 -213 61z m129 -70 c40 -40 41 -105 3 -150 -71
-84 -182 26 -130 128 30 56 83 65 127 22z"/>
<path d="M9227 1121 c-29 -15 -37 -16 -37 -5 0 9 -11 14 -30 14 l-30 0 0 -155
0 -155 29 0 28 0 6 101 c6 120 22 152 79 157 54 5 62 -14 67 -145 l3 -113 29
0 29 0 0 120 c0 138 -11 171 -61 189 -45 16 -69 14 -112 -8z"/>
<path d="M9907 1123 c-34 -14 -38 -19 -32 -42 9 -34 7 -33 48 -16 49 20 73 19
97 -5 34 -34 26 -50 -27 -50 -56 0 -127 -30 -142 -58 -18 -33 -13 -79 12 -107
29 -34 100 -45 146 -22 17 9 31 11 31 6 0 -5 14 -9 30 -9 l30 0 0 118 c0 133
-9 159 -60 184 -43 22 -83 22 -133 1z"/>
<path d="M10640 1118 c-61 -31 -82 -74 -78 -153 3 -44 10 -70 27 -94 43 -60
133 -79 201 -42 108 57 106 242 -3 292 -55 25 -93 24 -147 -3z m109 -53 c58
-29 67 -128 16 -172 -36 -31 -71 -29 -106 6 -24 24 -29 38 -29 76 0 38 5 52
29 76 33 33 50 35 90 14z"/>
<path d="M11043 1125 c-18 -8 -33 -10 -33 -5 0 6 -16 10 -35 10 l-35 0 0 -155
0 -155 35 0 35 0 0 95 c0 107 15 151 54 161 68 17 86 -15 86 -153 l0 -103 36
0 37 0 -5 118 c-6 135 -20 174 -69 191 -42 14 -67 13 -106 -4z"/>
<path d="M1320 975 l0 -155 30 0 30 0 0 155 0 155 -30 0 -30 0 0 -155z"/>
<path d="M1720 975 l0 -155 30 0 30 0 0 155 0 155 -30 0 -30 0 0 -155z"/>
<path d="M3601 1123 c0 -4 26 -78 58 -163 54 -143 57 -157 45 -182 -14 -27
-40 -41 -65 -36 -9 2 -15 -8 -17 -24 -3 -26 -1 -28 37 -28 71 0 91 29 166 238
36 100 65 187 65 193 0 6 -14 9 -32 7 -30 -3 -32 -6 -65 -103 -18 -55 -36
-107 -39 -115 -4 -9 -22 32 -45 100 l-37 115 -36 3 c-20 2 -36 0 -35 -5z"/>
<path d="M4870 1010 c0 -137 10 -169 60 -190 38 -16 105 -8 131 16 17 16 19
16 19 1 0 -12 9 -17 30 -17 l30 0 0 155 0 155 -30 0 -30 0 -1 -82 c0 -98 -14
-144 -51 -171 -23 -17 -32 -19 -52 -9 -33 15 -46 65 -46 175 l0 87 -30 0 -30
0 0 -120z"/>
<path d="M8770 1038 c1 -116 12 -174 38 -200 27 -28 100 -35 140 -14 18 9 32
12 32 6 0 -5 16 -10 35 -10 l35 0 0 155 0 155 -34 0 -34 0 -4 -110 c-3 -94 -6
-112 -23 -129 -31 -30 -59 -34 -86 -12 -22 18 -24 27 -27 135 l-4 116 -34 0
-34 0 0 -92z"/>
<path d="M10420 975 l0 -155 35 0 35 0 0 155 0 155 -35 0 -35 0 0 -155z"/>
</g>
</svg>
